<?xml version="1.0" encoding="utf-8"?>
<!-- Generator: Adobe Illustrator 19.2.0, SVG Export Plug-In . SVG Version: 6.00 Build 0)  -->
<svg version="1.1" id="Layer_1" xmlns="http://www.w3.org/2000/svg" xmlns:xlink="http://www.w3.org/1999/xlink" x="0px" y="0px"
	 viewBox="0 0 1024 768" style="enable-background:new 0 0 1024 768;" xml:space="preserve">
<style type="text/css">
	.st0{fill:none;stroke:#00C1C7;stroke-width:12;stroke-linecap:round;stroke-linejoin:round;stroke-miterlimit:10;}
	.st1{fill:none;stroke:#00C1C7;stroke-width:12;stroke-miterlimit:10;}
	.st2{fill:#FFFFFF;stroke:#00C1C7;stroke-width:12;stroke-linejoin:bevel;stroke-miterlimit:10;}
	.st3{fill:#FFFFFF;stroke:#00C1C7;stroke-width:12;stroke-linecap:round;stroke-linejoin:round;stroke-miterlimit:10;}
	.st4{fill:none;stroke:#00C1C7;stroke-width:12;stroke-linecap:round;stroke-miterlimit:10;}
</style>
<line class="st0" x1="832" y1="256" x2="832" y2="472"/>
<g>
	<path class="st0" d="M664,640H256c-35.3,0-64-28.7-64-64V256"/>
	<path class="st0" d="M832,256H192v-64c0-35.3,28.7-64,64-64h512c35.3,0,64,28.7,64,64V256"/>
</g>
<line class="st0" x1="252" y1="320" x2="384" y2="320"/>
<line class="st0" x1="256" y1="448" x2="384" y2="448"/>
<line class="st0" x1="256" y1="576" x2="388" y2="576"/>
<line class="st0" x1="448" y1="320" x2="768" y2="320"/>
<line class="st0" x1="448" y1="448" x2="768" y2="448"/>
<line class="st0" x1="448" y1="576" x2="636" y2="576"/>
<line class="st0" x1="448" y1="512" x2="688" y2="512"/>
<line class="st0" x1="448" y1="384" x2="704" y2="384"/>
<line class="st0" x1="256" y1="384" x2="344" y2="384"/>
<line class="st0" x1="256" y1="512" x2="364" y2="512"/>
<circle class="st1" cx="256" cy="192" r="16"/>
<circle class="st1" cx="312" cy="191.7" r="16"/>
<circle class="st1" cx="368" cy="191.7" r="16"/>
<path class="st4" d="M896,607.7v-3.3c0-5.3-3.8-9.9-9.1-10.7l-22.9-3.8c-1.7-6.8-4.3-13.2-7.9-19l13.5-18.9c3.1-4.3,2.6-10.3-1.2-14
	l-2.4-2.4c-3.8-3.8-9.7-4.3-14-1.2l-18.9,13.5c-5.8-3.5-12.2-6.2-19-7.9l-3.8-22.9c-0.9-5.3-5.4-9.1-10.7-9.1h-3.3
	c-5.3,0-9.9,3.8-10.7,9.1l-3.8,22.9c-6.8,1.7-13.2,4.3-19,7.9l-18.9-13.5c-4.3-3.1-10.3-2.6-14,1.2l-2.4,2.4
	c-3.8,3.8-4.3,9.7-1.2,14l13.5,18.9c-3.5,5.8-6.2,12.2-7.9,19l-22.9,3.8c-5.3,0.9-9.1,5.4-9.1,10.7v3.3c0,5.3,3.8,9.9,9.1,10.7
	l22.9,3.8c1.7,6.8,4.3,13.2,7.9,19l-13.5,18.9c-3.1,4.3-2.6,10.3,1.2,14l2.4,2.4c3.8,3.8,9.7,4.3,14,1.2l18.9-13.5
	c5.8,3.5,12.2,6.2,19,7.9l3.8,22.9c0.9,5.3,5.4,9.1,10.7,9.1h3.3c5.3,0,9.9-3.8,10.7-9.1l3.8-22.9c6.8-1.7,13.2-4.3,19-7.9
	l18.9,13.5c4.3,3.1,10.3,2.6,14-1.2l2.4-2.4c3.8-3.8,4.3-9.7,1.2-14l-13.5-18.9c3.5-5.8,6.2-12.2,7.9-19l22.9-3.8
	C892.2,617.5,896,613,896,607.7z M830.7,606c0,18-14.6,32.7-32.7,32.7S765.3,624,765.3,606s14.6-32.7,32.7-32.7"/>
</svg>
