<?xml version="1.0" encoding="utf-8"?>
<!-- Generator: Adobe Illustrator 19.2.0, SVG Export Plug-In . SVG Version: 6.00 Build 0)  -->
<svg version="1.1" id="Layer_1" xmlns="http://www.w3.org/2000/svg" xmlns:xlink="http://www.w3.org/1999/xlink" x="0px" y="0px"
	 viewBox="0 0 1024 768" style="enable-background:new 0 0 1024 768;" xml:space="preserve">
<style type="text/css">
	.st0{fill:none;stroke:#00C1C7;stroke-width:12;stroke-linecap:round;stroke-linejoin:round;stroke-miterlimit:10;}
	.st1{fill:none;stroke:#00C1C7;stroke-width:12;stroke-miterlimit:10;}
	.st2{fill:#FFFFFF;stroke:#00C1C7;stroke-width:12;stroke-linejoin:bevel;stroke-miterlimit:10;}
	.st3{fill:#FFFFFF;stroke:#00C1C7;stroke-width:12;stroke-linecap:round;stroke-linejoin:round;stroke-miterlimit:10;}
	.st4{fill:none;stroke:#00C1C7;stroke-width:12;stroke-linecap:round;stroke-miterlimit:10;}
</style>
<path class="st0" d="M400,576H256c-35.3,0-64-28.7-64-64V188c0-35.3,28.7-64,64-64h384c35.3,0,64,28.7,64,64v196"/>
<path class="st0" d="M480,432h320c17.7,0,32,14.3,32,32v192c0,17.7-14.3,32-32,32H480c-17.7,0-32-14.3-32-32V464
	C448,446.3,462.3,432,480,432z"/>
<rect x="256" y="192" class="st0" width="384" height="64"/>
<rect x="256" y="320" class="st0" width="384" height="64"/>
<rect x="452" y="484" class="st0" width="380" height="48"/>
<g>
	<line class="st2" x1="516" y1="484" x2="452" y2="532"/>
	<line class="st2" x1="580" y1="484" x2="516" y2="532"/>
	<line class="st2" x1="644" y1="484" x2="580" y2="532"/>
	<line class="st2" x1="708" y1="484" x2="644" y2="532"/>
	<line class="st2" x1="772" y1="484" x2="708" y2="532"/>
	<line class="st2" x1="836" y1="484" x2="772" y2="532"/>
</g>
<g>
	<line class="st3" x1="512" y1="590" x2="608" y2="590"/>
	<line class="st3" x1="644" y1="590" x2="688" y2="590"/>
	<line class="st3" x1="512" y1="630" x2="664" y2="630"/>
</g>
<rect x="252" y="448" class="st0" width="136" height="64"/>
<line class="st0" x1="292" y1="480" x2="348" y2="480"/>
</svg>
