<?xml version="1.0" encoding="utf-8"?>
<!-- Generator: Adobe Illustrator 19.2.0, SVG Export Plug-In . SVG Version: 6.00 Build 0)  -->
<svg version="1.1" id="Layer_1" xmlns="http://www.w3.org/2000/svg" xmlns:xlink="http://www.w3.org/1999/xlink" x="0px" y="0px"
	 viewBox="0 0 720 600" style="enable-background:new 0 0 720 600;" xml:space="preserve">
<style type="text/css">
	.st0{fill:none;stroke:#00C1C7;stroke-width:12;stroke-linecap:round;stroke-linejoin:round;stroke-miterlimit:10;}
	.st1{fill:none;stroke:#00C1C7;stroke-width:12;stroke-miterlimit:10;}
	.st2{fill:none;stroke:#00C1C7;stroke-width:12;stroke-linecap:round;stroke-miterlimit:10;}
</style>
<g>
	<line class="st0" x1="648" y1="139.9" x2="648" y2="355.9"/>
	<g>
		<path class="st0" d="M480,523.9H72c-35.3,0-64-28.7-64-64v-320"/>
		<path class="st0" d="M648,139.9H8v-64c0-35.3,28.7-64,64-64h512c35.3,0,64,28.7,64,64V139.9"/>
	</g>
	<line class="st0" x1="68" y1="203.9" x2="200" y2="203.9"/>
	<line class="st0" x1="72" y1="331.9" x2="200" y2="331.9"/>
	<line class="st0" x1="72" y1="459.9" x2="204" y2="459.9"/>
	<line class="st0" x1="264" y1="203.9" x2="584" y2="203.9"/>
	<line class="st0" x1="264" y1="331.9" x2="584" y2="331.9"/>
	<line class="st0" x1="264" y1="459.9" x2="452" y2="459.9"/>
	<line class="st0" x1="264" y1="395.9" x2="504" y2="395.9"/>
	<line class="st0" x1="264" y1="267.9" x2="520" y2="267.9"/>
	<line class="st0" x1="72" y1="267.9" x2="160" y2="267.9"/>
	<line class="st0" x1="72" y1="395.9" x2="180" y2="395.9"/>
	<circle class="st1" cx="72" cy="75.9" r="16"/>
	<circle class="st1" cx="128" cy="75.6" r="16"/>
	<circle class="st1" cx="184" cy="75.6" r="16"/>
	<path class="st2" d="M712,491.6v-3.3c0-5.3-3.8-9.9-9.1-10.7l-22.9-3.8c-1.7-6.8-4.3-13.2-7.9-19l13.5-18.9
		c3.1-4.3,2.6-10.3-1.2-14l-2.4-2.4c-3.8-3.8-9.7-4.3-14-1.2l-18.9,13.5c-5.8-3.5-12.2-6.2-19-7.9l-3.8-22.9
		c-0.9-5.3-5.4-9.1-10.7-9.1h-3.3c-5.3,0-9.9,3.8-10.7,9.1l-3.8,22.9c-6.8,1.7-13.2,4.3-19,7.9l-18.9-13.5c-4.3-3.1-10.3-2.6-14,1.2
		l-2.4,2.4c-3.8,3.8-4.3,9.7-1.2,14l13.5,18.9c-3.5,5.8-6.2,12.2-7.9,19l-22.9,3.8c-5.3,0.9-9.1,5.4-9.1,10.7v3.3
		c0,5.3,3.8,9.9,9.1,10.7l22.9,3.8c1.7,6.8,4.3,13.2,7.9,19L542.3,544c-3.1,4.3-2.6,10.3,1.2,14l2.4,2.4c3.8,3.8,9.7,4.3,14,1.2
		l18.9-13.5c5.8,3.5,12.2,6.2,19,7.9l3.8,22.9c0.9,5.3,5.4,9.1,10.7,9.1h3.3c5.3,0,9.9-3.8,10.7-9.1l3.8-22.9
		c6.8-1.7,13.2-4.3,19-7.9l18.9,13.5c4.3,3.1,10.3,2.6,14-1.2l2.4-2.4c3.8-3.8,4.3-9.7,1.2-14l-13.5-18.9c3.5-5.8,6.2-12.2,7.9-19
		l22.9-3.8C708.2,501.4,712,496.9,712,491.6z M646.7,489.9c0,18-14.6,32.7-32.7,32.7s-32.7-14.7-32.7-32.7s14.6-32.7,32.7-32.7"/>
</g>
</svg>
