<?xml version="1.0" encoding="utf-8"?>
<!-- Generator: Adobe Illustrator 19.0.0, SVG Export Plug-In . SVG Version: 6.00 Build 0)  -->
<svg version="1.1" id="Layer_1" xmlns="http://www.w3.org/2000/svg" xmlns:xlink="http://www.w3.org/1999/xlink" x="0px" y="0px"
	 viewBox="5 -5 80 80" style="enable-background:new 5 -5 80 80;" xml:space="preserve">
<style type="text/css">
	.st0{fill:#00C1C7;}
</style>
<g>
	<g>
		<path class="st0" d="M76.5,11.3h-9V5.7c0-0.6-0.5-1.1-1.1-1.1h-6.8c-0.6,0-1.1,0.5-1.1,1.1v5.6h-27V5.7c0-0.6-0.5-1.1-1.1-1.1
			h-6.8c-0.6,0-1.1,0.5-1.1,1.1v5.6h-9c-2.5,0-4.5,2-4.5,4.5V61c0,2.5,2,4.5,4.5,4.5h63c2.5,0,4.5-2,4.5-4.5V15.8
			C81,13.3,79,11.3,76.5,11.3z M60.8,6.8h4.5v9h-4.5V6.8z M24.7,6.8h4.5v9h-4.5V6.8z M78.8,61c0,1.2-1,2.3-2.3,2.3h-63
			c-1.2,0-2.3-1-2.3-2.3V15.8c0-1.2,1-2.3,2.3-2.3h9v3.4c0,0.6,0.5,1.1,1.1,1.1h6.8c0.6,0,1.1-0.5,1.1-1.1v-3.4h27v3.4
			c0,0.6,0.5,1.1,1.1,1.1h6.8c0.6,0,1.1-0.5,1.1-1.1v-3.4h9c1.2,0,2.3,1,2.3,2.3V61z M55.1,42.9h11.3c0.6,0,1.1-0.5,1.1-1.1
			s-0.5-1.1-1.1-1.1H55.1c-0.6,0-1.1,0.5-1.1,1.1S54.5,42.9,55.1,42.9z M70.9,33.9H55.1c-0.6,0-1.1,0.5-1.1,1.1s0.5,1.1,1.1,1.1
			h15.8c0.6,0,1.1-0.5,1.1-1.1S71.5,33.9,70.9,33.9z M70.9,47.4H55.1c-0.6,0-1.1,0.5-1.1,1.1s0.5,1.1,1.1,1.1h15.8
			c0.6,0,1.1-0.5,1.1-1.1S71.5,47.4,70.9,47.4z M55.1,29.4h6.8c0.6,0,1.1-0.5,1.1-1.1s-0.5-1.1-1.1-1.1h-6.8c-0.6,0-1.1,0.5-1.1,1.1
			C54,28.8,54.5,29.4,55.1,29.4z M33.7,22.6C25,22.6,18,29.7,18,38.4s7.1,15.8,15.8,15.8s15.8-7.1,15.8-15.8
			C49.5,29.7,42.4,22.6,33.7,22.6z M33.7,51.9c-3.2,0-6.1-1.1-8.4-3c1.1-1.5,3.5-3.8,8.4-3.8s7.4,2.4,8.4,3.8
			C39.9,50.8,36.9,51.9,33.7,51.9z M43.8,47.4c-1.4-1.9-4.4-4.5-10.1-4.5s-8.6,2.6-10.1,4.5c-2.1-2.4-3.4-5.6-3.4-9
			c0-7.5,6-13.6,13.5-13.6s13.5,6.1,13.5,13.6C47.3,41.9,45.9,45,43.8,47.4z M39.4,37.3V35c0-3.1-2.5-5.6-5.6-5.6
			c-3.1,0-5.6,2.5-5.6,5.6v2.3c0,3.1,2.5,5.6,5.6,5.6C36.9,42.9,39.4,40.4,39.4,37.3z M37.1,37.3c0,1.9-1.5,3.4-3.4,3.4
			c-1.9,0-3.4-1.5-3.4-3.4V35c0-1.9,1.5-3.4,3.4-3.4c1.9,0,3.4,1.5,3.4,3.4V37.3z"/>
	</g>
</g>
</svg>
