<?xml version="1.0" encoding="utf-8"?>
<!-- Generator: Adobe Illustrator 19.2.0, SVG Export Plug-In . SVG Version: 6.00 Build 0)  -->
<svg version="1.1" id="Layer_1" xmlns="http://www.w3.org/2000/svg" xmlns:xlink="http://www.w3.org/1999/xlink" x="0px" y="0px"
	 viewBox="0 0 175.7 26.5" style="enable-background:new 0 0 175.7 26.5;" xml:space="preserve">
<style type="text/css">
	.st0{fill-rule:evenodd;clip-rule:evenodd;}
	.st1{fill-rule:evenodd;clip-rule:evenodd;fill:#EC3832;}
</style>
<g>
	<polygon class="st0" points="175.7,0 175.7,26.5 0,26.5 0,0 175.7,0 	"/>
	<path class="st1" d="M7.6,20.9h7l1.3-6.2c0.1-0.6,0.1-1.2,0.2-1.9h0.3c0.1,0.7,0.3,1.3,0.5,1.9l2.7,6.1h4.4l3-6.5
		c0.2-0.5,0.4-1,0.5-1.5h0.1l1.4,8.1h7L32.5,5.4h-7.7c0,0-2.7,7.4-2.9,8.1h-0.2l-2.9-8.1H11L7.6,20.9L7.6,20.9z"/>
	<path class="st1" d="M46.7,19l-0.8,1.9h-7.3l7.3-15.4h8.4l7.5,15.4h-7.3L53.6,19H46.7L46.7,19z M50,10.6l-1.8,4.7
		c3.8,0,3.8,0,3.8,0l-1-2.7c-0.2-0.7-0.6-1.3-0.7-2H50L50,10.6z"/>
	<path class="st1" d="M139.2,5.4v8.2c0,1.2-0.1,2.3-2.1,2.3c-2,0-2.1-1.1-2.1-2.3V5.4h-7.6V15c0,4.5,3.8,6.6,9.7,6.6
		c5.9,0,9.7-2.1,9.7-6.6V5.4H139.2L139.2,5.4z"/>
	<polygon class="st1" points="150.4,10.5 154.6,10.5 154.6,20.9 162.2,20.9 162.2,10.5 166.4,10.5 166.4,5.4 150.4,5.4 150.4,10.5 	
		"/>
	<path class="st1" d="M64.3,20.9h7l1.3-6.2c0.1-0.6,0.1-1.3,0.2-1.9H73c0.1,0.7,0.2,1.3,0.5,1.9l2.7,6.1h4.4l3-6.5
		c0.2-0.5,0.4-1,0.5-1.5h0.1l1.4,8.1h7L89.2,5.4h-7.7c0,0-2.7,7.4-2.9,8.1h-0.2l-2.9-8.1h-7.8L64.3,20.9L64.3,20.9z"/>
	<path class="st1" d="M96.2,20.9h7l1.2-6.2c0.1-0.6,0.1-1.3,0.2-1.9h0.2c0.1,0.7,0.3,1.3,0.5,1.9l2.7,6.1h4.4l3-6.5
		c0.2-0.5,0.4-1,0.5-1.5h0.1l1.4,8.1h7l-3.4-15.4h-7.7c0,0-2.7,7.4-2.9,8.1h-0.2l-2.9-8.1h-7.8L96.2,20.9L96.2,20.9z"/>
</g>
</svg>
