<?xml version="1.0" encoding="utf-8"?>
<!-- Generator: Adobe Illustrator 19.2.0, SVG Export Plug-In . SVG Version: 6.00 Build 0)  -->
<svg version="1.1" id="Layer_1" xmlns="http://www.w3.org/2000/svg" xmlns:xlink="http://www.w3.org/1999/xlink" x="0px" y="0px"
	 viewBox="0 0 187.1 36.9" style="enable-background:new 0 0 187.1 36.9;" xml:space="preserve">
<style type="text/css">
	.st0{fill-rule:evenodd;clip-rule:evenodd;}
</style>
<g>
	<path class="st0" d="M36.3,18.2c-0.3,0-1.1,0-1.1,0c-2,0-3.7,1.5-3.7,3.6c0,1.7,0.5,3.6,2.7,3.6c1.9,0,2.3-1.5,2.3-3.1v-3.8
		C36.5,18.5,36.6,18.2,36.3,18.2L36.3,18.2z M94.5,36.9h-4c-2.9-0.3-5.4-1.4-5.4-4.1c0-1.9,2.2-3.3,4-3.6c0,0,0.5-0.1,0-0.1
		c-0.6-0.1-4.1-0.4-5.2-0.1c0,0-0.3,0-0.4-0.3c-0.1-0.3-0.8-2-0.9-2.2c-0.1-0.3,0.1-0.4,0.1-0.4c2.6-0.4,4.8-1.7,5.9-2
		c0.6-0.1,0-0.3,0-0.3c-3.6-0.6-7.1-3.1-7.1-7.3c0-6,5-8.7,9.7-8.7c2.2,0,3.4,0.4,4.6,0.5c0,0,0.1,0.1,0.3-0.1
		c0-0.4,0.4-1.4,0.4-1.4c0.5-1.5,1.3-2.2,3.6-2.2c0.5,0,1,0,1.4,0.1c0,0,0.3-0.1,0.3,0.3c-0.1,0.1-0.9,3.2-0.9,3.3
		c-0.1,0.4-0.3,0.1-0.3,0.1C100,8.3,99.9,8.2,99,8.3c-0.5,0-0.8,0.4-0.8,0.9c0,0.9,4.1,2.2,4.1,7c0,6.5-6,7.9-11.2,9.2
		c0,0-0.5,0.1,0,0.1c3.4,0.4,10.6,1.3,10.6,5.7C101.6,35,97.4,36.5,94.5,36.9L94.5,36.9z M44.5,26.5c0.3,0,0.8,0,1,0
		c0.3,0,0.3,0.3,0.3,0.3s0,1.8,0,2c0,0.4-0.4,0.3-0.4,0.3c-1.4,0-8.2,0-8.2,0s-0.1,0-0.1-0.3c-0.1-0.5-0.4-1-0.4-1.4
		c-0.1-0.5-0.4,0-0.4,0c-1.7,1.3-3.6,2.3-5.9,2.3c-3.8,0-6.8-2.4-6.8-6.4c0-4.8,3.1-7.5,6.9-7.5l5.9-0.3c0,0,0,0,0-0.3
		c0-0.1,0-0.6,0-0.6c0-1.7-0.9-2.4-2.8-2.4c-2.4,0-3.6,0.9-4.7,2.3c0,0,0,0.1-0.3,0.1c-0.3-0.1-2.3-0.9-2.3-0.9s-0.3,0-0.1-0.3
		c0.1-0.3,2.7-6.4,2.7-6.4s0-0.3,0.1-0.1c0.4,0.1,1.9,0.6,2.3,0.6C31.6,7.8,31.5,8,31.5,8s-0.1,0.3-0.3,0.5
		c-0.1,0.5,0.1,0.3,0.1,0.3c1.7-0.6,3.3-0.9,5-0.9c4.8,0,8,2,8,7v11.2C44.4,26.1,44.4,26.5,44.5,26.5L44.5,26.5z M45,9.4
		c3.3-0.9,6.1-3.1,7.5-6.1c0,0,0-0.1,0.3-0.1c0.3,0,1.9,0.4,2.2,0.4c0.3,0.1,0.1,0.3,0.1,0.3c-0.1,1-0.3,2.2-0.3,3.1
		c0,0,0,1.3,0,1.5c0,0.3,0.3,0.1,0.3,0.1s3.3,0,3.4,0c0.3,0,0.1,0.3,0.1,0.3s-0.5,2.6-0.5,2.8c-0.1,0.3-0.3,0.3-0.3,0.3
		s-2.6,0-2.8,0c-0.3,0-0.3,0.1-0.3,0.1v11.9c0,1.4,1.1,1.7,1.8,1.7c0.6,0,0.8,0,1.3-0.3c0,0,0.3-0.3,0.3,0c0.1,0.3,0.8,1.9,0.9,2.2
		c0.1,0.1-0.1,0.3-0.1,0.3c-2.7,1.9-2.9,2-6.5,2c-4,0-5.4-1.9-5.4-5.5V12c0,0,0-0.1-0.3-0.1c-0.4,0-1.8,0-1.8,0s-0.1,0-0.1-0.3
		c0-0.5,0-1.7,0-1.9C44.9,9.6,45,9.4,45,9.4L45,9.4z M103.2,18.7c0-6.6,5.2-10.8,12.1-10.8c6.9,0,12.2,4.2,12.2,10.8
		c0,6.9-5.4,11-12.2,11C108.4,29.7,103.2,25.6,103.2,18.7L103.2,18.7z M111.1,15.8c0,3.1,1.3,10.7,5.6,10.7c2.3,0,2.9-2.4,2.9-4.7
		c0-3.1-1.3-10.7-5.7-10.7C111.1,11.1,111.1,14.3,111.1,15.8L111.1,15.8z M151.8,29.1H141c0,0-0.1,0-0.1-0.1c0-0.3,0-2,0-2.2
		c0-0.3,0.3-0.3,0.3-0.3s1,0,1.3,0c0.1,0,0.1-0.1,0.1-0.1V14.8c0-1.3-1.1-1.8-2.3-1.8c-1.4,0-2.4,0.6-3.4,1.5c0,0-0.1,0.1-0.1,0.3
		c0,0.3,0,11.6,0,11.6s0,0.1,0.1,0.1c0.3,0,1.4,0,1.4,0s0.1,0,0.1,0.3c0,0.3,0,2,0,2.2c0,0.1-0.1,0.1-0.1,0.1h-10.7
		c0,0-0.1,0.1-0.1-0.3c0-0.1,0-1.9,0-2c0-0.3,0.1-0.3,0.1-0.3s1,0,1.1,0c0.3,0,0.1-0.1,0.1-0.1V12.8c0,0,0.1-0.3-0.1-0.3
		c-0.4,0.1-1.1,0.4-1.1,0.4s-0.1,0.1-0.1-0.1c0-0.3,0-1.9,0-2.2c0-0.3,0.1-0.1,0.1-0.1l9.1-2.4c0,0,0.3-0.1,0.3,0.1
		c0,0.1,0,2.7,0,2.9c0,0.4,0.1,0.1,0.1,0.1c2.2-1.7,4.3-3.3,7.3-3.3c5.5,0,6.2,3.7,6.2,6v12.5c0,0-0.1,0.1,0.1,0.1
		c0.1,0,1.1,0,1.1,0s0.1,0,0.1,0.3c0,0.3,0,1.9,0,2C151.9,29.2,151.8,29.1,151.8,29.1L151.8,29.1z M162.6,8l-9.1,2.4
		c0,0-0.1,0-0.1,0.3c0,0.1,0,1.8,0,2c0,0.3,0.3,0.1,0.3,0.1s0.6-0.1,1.1-0.3c0.3,0,0.1,0.3,0.1,0.4c0,0.3,0,13.4,0,13.4
		s0.1,0.1-0.1,0.1s-1.3,0-1.3,0s-0.3,0-0.3,0.3c0,0.3,0,1.9,0,2.2c0,0.3,0.3,0.1,0.3,0.1s10.2,0,10.6,0c0.3,0,0.1-0.3,0.1-0.3
		s0-1.7,0-2c0-0.3-0.3-0.3-0.3-0.3s-0.6,0-1,0c-0.3,0-0.1-0.1-0.1-0.1s0-18,0-18.2C162.9,7.9,162.6,8,162.6,8L162.6,8z M159.4,1.7
		c1.8,0,3.8,0.5,3.8,2.7c0,2.6-3.4,3.6-5.6,3.6c-1.8,0-2.9-0.9-2.9-2.7C154.7,3.2,157.5,1.7,159.4,1.7L159.4,1.7z M71.8,18.2
		c-0.3,0-1,0-1,0c-2.2,0-3.7,1.5-3.7,3.6c0,1.7,0.5,3.6,2.6,3.6c2,0,2.4-1.5,2.4-3.1v-3.8C72.1,18.5,72.1,18.2,71.8,18.2L71.8,18.2z
		 M80.1,26.5c0.3,0,0.8,0,0.9,0c0.4,0,0.4,0.3,0.4,0.3s0,1.8,0,2c0,0.4-0.4,0.3-0.4,0.3c-1.5,0-8.2,0-8.2,0s-0.1,0-0.3-0.3
		c-0.1-0.5-0.3-1-0.3-1.4c-0.1-0.5-0.4,0-0.4,0c-1.8,1.3-3.6,2.3-5.9,2.3c-4,0-6.9-2.4-6.9-6.4c0-4.8,3.2-7.7,7-7.7l5.7-0.1
		c0,0,0.1,0,0.1-0.3c0-0.1,0-0.6,0-0.6c0-1.7-0.9-2.4-2.8-2.4c-2.4,0-3.6,0.9-4.7,2.3c0,0-0.1,0.1-0.3,0c-0.3,0-2.4-0.8-2.4-0.8
		s-0.1,0,0-0.3c0.1-0.3,2.6-6.4,2.6-6.4s0-0.3,0.3-0.1c0.3,0.1,1.9,0.6,2.2,0.6C67.1,7.8,67,8,67,8s0,0.3-0.1,0.5
		C66.6,9.1,67,8.8,67,8.8c1.7-0.6,3.3-0.9,5-0.9c4.8,0,8,2,8,7v11.2C80,26.1,79.8,26.5,80.1,26.5L80.1,26.5z M88.5,13.4
		c0,2.3,1.3,8.5,4.5,8.5c1.7,0,2.3-0.8,2.3-2.8c0-2.3-1.4-8.5-4.6-8.5C89.1,10.6,88.5,11.4,88.5,13.4L88.5,13.4z M91.8,30.1
		c-0.4,0.4-0.6,1.8-0.6,2.7c0,1,0.5,2.2,1.8,2.2c1,0,1.7-0.5,1.7-1.5c0-1.9-1.1-2.6-2.6-3.4C92.1,30,91.9,30,91.8,30.1L91.8,30.1z
		 M176.9,18.2c-0.3,0-1,0-1,0c-2.2,0-3.7,1.5-3.7,3.6c0,1.7,0.5,3.6,2.6,3.6c2,0,2.4-1.5,2.4-3.1v-3.8
		C177.1,18.5,177.1,18.2,176.9,18.2L176.9,18.2z M185.2,26.5c0.3,0,0.8,0,1,0s0.3,0.3,0.3,0.3s0,1.8,0,2c0,0.4-0.4,0.3-0.4,0.3
		c-1.5,0-8.2,0-8.2,0s-0.1,0-0.3-0.3c-0.1-0.5-0.3-1-0.3-1.4c-0.1-0.5-0.4,0-0.4,0c-1.8,1.3-3.6,2.3-5.9,2.3c-4,0-6.9-2.4-6.9-6.4
		c0-4.8,3.2-7.7,7-7.7l5.7-0.1c0,0,0.1,0,0.1-0.3c0-0.1,0-0.6,0-0.6c0-1.7-0.9-2.4-2.8-2.4c-2.4,0-3.6,0.9-4.7,2.3
		c0,0-0.1,0.1-0.3,0c-0.3,0-2.3-0.8-2.3-0.8s-0.3,0-0.1-0.3c0.1-0.3,2.6-6.4,2.6-6.4s0-0.3,0.3-0.1c0.3,0.1,1.9,0.6,2.2,0.6
		c0.3,0.1,0.3,0.4,0.3,0.4s-0.1,0.3-0.3,0.5c-0.3,0.5,0.1,0.3,0.1,0.3c1.7-0.6,3.3-0.9,5-0.9c4.8,0,8,2,8,7v11.2
		C185,26.1,185,26.5,185.2,26.5L185.2,26.5z M9.4,12.9c0,0.3,0,10.3,0,10.3c0,1.8,0.6,3.3,2.7,3.3c2.6,0,3.7-1.5,3.7-6.2
		c0-7.5-3.8-7.9-5.1-7.9l-1,0.1C9.7,12.5,9.4,12.6,9.4,12.9L9.4,12.9z M9.6,9.8c1.9-1.1,3.3-1.9,5.2-1.9c5,0,8.9,4.1,8.9,10.1
		c0,5.9-3.7,11.7-10.1,11.7c-1.3,0-2.9-0.1-4.1-0.8c0,0-0.1,0-0.1,0.1c0,0.3,0,3.7,0,3.7s0,0.3,0.3,0.3c0.3,0,2.3,0,2.3,0
		s0.3,0,0.3,0.3c0,0.5,0,1.8,0,2c0,0.1-0.3,0.3-0.3,0.3H0.4c0,0-0.4,0-0.4-0.3c0,0,0,0,0,0c0,0,0,0,0,0c0,0,0,0,0,0c0,0,0,0,0,0
		c0,0,0,0,0,0c0,0,0,0,0,0c0,0,0,0,0,0c0,0,0,0,0,0c0,0,0,0,0,0s0,0,0,0c0,0,0,0,0,0c0,0,0,0,0,0c0,0,0,0,0,0s0,0,0,0c0,0,0,0,0,0
		s0,0,0,0c0,0,0,0,0,0c0,0,0,0,0,0c0,0,0,0,0,0c0,0,0,0,0,0c0,0,0,0,0,0c0,0,0,0,0,0c0,0,0,0,0,0c0,0,0,0,0,0c0,0,0,0,0,0
		c0,0,0,0,0,0c0,0,0,0,0,0c0,0,0,0,0,0c0,0,0,0,0,0s0,0,0,0c0,0,0,0,0,0c0,0,0,0,0,0c0,0,0,0,0,0s0,0,0,0c0,0,0,0,0,0c0,0,0,0,0,0
		c0,0,0,0,0,0c0,0,0,0,0,0c0,0,0,0,0,0c0,0,0,0,0,0c0,0,0,0,0,0c0,0,0,0,0,0c0,0,0,0,0,0c0,0,0,0,0,0c0,0,0,0,0,0c0,0,0,0,0,0
		s0,0,0,0s0,0,0,0c0,0,0,0,0,0s0,0,0,0c0,0,0,0,0,0c0,0,0,0,0,0c0,0,0,0,0,0c0,0,0,0,0,0c0,0,0,0,0,0c0,0,0,0,0,0c0,0,0,0,0,0
		c0,0,0,0,0,0c0,0,0,0,0,0c0,0,0,0,0,0c0,0,0,0,0,0c0,0,0,0,0,0c0,0,0,0,0,0c0,0,0,0,0,0C0,33,0.3,33,0.3,33s0.8,0,1,0
		c0.3,0,0.3-0.3,0.3-0.3s0-19.8,0-20c0-0.3-0.3-0.1-0.3-0.1l-1,0.3c0,0-0.3,0-0.3-0.3c0,0,0,0,0,0c0,0,0,0,0,0c0,0,0,0,0,0
		c0,0,0,0,0,0c0,0,0,0,0,0c0,0,0,0,0,0c0,0,0,0,0,0c0,0,0,0,0,0c0,0,0,0,0,0c0,0,0,0,0,0c0,0,0,0,0,0c0,0,0,0,0,0c0,0,0,0,0,0
		c0,0,0,0,0,0c0,0,0,0,0,0c0,0,0,0,0,0c0,0,0,0,0,0c0,0,0,0,0,0c0,0,0,0,0,0c0,0,0,0,0,0c0,0,0,0,0,0c0,0,0,0,0,0c0,0,0,0,0,0
		s0,0,0,0c0,0,0,0,0,0c0,0,0,0,0,0c0,0,0,0,0,0c0,0,0,0,0,0c0,0,0,0,0,0c0,0,0,0,0,0c0,0,0,0,0,0c0,0,0,0,0,0c0,0,0,0,0,0
		c0,0,0,0,0,0c0,0,0,0,0,0c0,0,0,0,0,0c0,0,0,0,0,0c0,0,0,0,0,0c0,0,0,0,0,0c0,0,0,0,0,0c0,0,0,0,0,0c0,0,0,0,0,0c0,0,0,0,0,0
		c0,0,0,0,0,0s0,0,0,0c0,0,0,0,0,0c0,0,0,0,0,0s0,0,0,0c0,0,0,0,0,0c0,0,0,0,0,0c0,0,0,0,0,0c0,0,0,0,0,0c0,0,0,0,0,0c0,0,0,0,0,0
		c0,0,0,0,0,0c0,0,0,0,0,0c0,0,0,0,0,0c0,0,0,0,0,0c0,0,0,0,0,0c0,0,0,0,0,0c0,0,0,0,0,0c0,0,0,0,0,0c0,0,0,0,0,0c0,0,0,0,0,0
		c0-0.3,0.3-0.3,0.3-0.3L9.2,8c0,0,0.3-0.1,0.3,0.1c0,0.3,0,1.4,0,1.5C9.4,9.9,9.6,9.8,9.6,9.8L9.6,9.8z"/>
	<path class="st0" d="M181.5,2.8c0-1.5,1.3-2.8,2.8-2.8c1.5,0,2.8,1.3,2.8,2.8c0,1.7-1.3,2.9-2.8,2.9C182.8,5.7,181.5,4.5,181.5,2.8
		L181.5,2.8z M186.7,2.8c0-1.3-1-2.4-2.4-2.4c-1.4,0-2.6,1.1-2.6,2.4c0,1.4,1.1,2.6,2.6,2.6C185.7,5.4,186.7,4.2,186.7,2.8
		L186.7,2.8z M185.7,4.5h-0.5l-0.9-1.5h-0.6v1.5h-0.4V1.3h1.3c0.3,0,0.6,0,0.8,0.1c0.3,0.1,0.4,0.5,0.4,0.8c0,0.5-0.4,0.8-1,0.8
		L185.7,4.5L185.7,4.5z M184.2,2.7c0.5,0,1.1,0.1,1.1-0.5c0-0.5-0.4-0.6-0.8-0.6h-0.9v1.1H184.2L184.2,2.7z"/>
</g>
</svg>
