<?xml version="1.0" encoding="utf-8"?>
<!-- Generator: Adobe Illustrator 19.2.0, SVG Export Plug-In . SVG Version: 6.00 Build 0)  -->
<svg version="1.1" id="Layer_2" xmlns="http://www.w3.org/2000/svg" xmlns:xlink="http://www.w3.org/1999/xlink" x="0px" y="0px"
	 viewBox="0 0 1500 384" style="enable-background:new 0 0 1500 384;" xml:space="preserve">
<style type="text/css">
	.st0{clip-path:url(#SVGID_2_);fill:#2CB6EA;}
	.st1{clip-path:url(#SVGID_2_);fill:#2CB5E9;}
	.st2{clip-path:url(#SVGID_2_);fill:#2CB4E7;}
	.st3{clip-path:url(#SVGID_2_);fill:#2CB3E6;}
	.st4{clip-path:url(#SVGID_2_);fill:#2CB3E5;}
	.st5{clip-path:url(#SVGID_2_);fill:#2CB2E4;}
	.st6{clip-path:url(#SVGID_2_);fill:#2CB1E3;}
	.st7{clip-path:url(#SVGID_2_);fill:#2CB0E2;}
	.st8{clip-path:url(#SVGID_2_);fill:#2CAFE2;}
	.st9{clip-path:url(#SVGID_2_);fill:#2CAFE1;}
	.st10{clip-path:url(#SVGID_2_);fill:#2CAEE0;}
	.st11{clip-path:url(#SVGID_2_);fill:#2BADDF;}
	.st12{clip-path:url(#SVGID_2_);fill:#2BACDE;}
	.st13{clip-path:url(#SVGID_2_);fill:#2BACDD;}
	.st14{clip-path:url(#SVGID_2_);fill:#2BABDC;}
	.st15{clip-path:url(#SVGID_2_);fill:#2BAADC;}
	.st16{clip-path:url(#SVGID_2_);fill:#2BA9DB;}
	.st17{clip-path:url(#SVGID_2_);fill:#2AA9DA;}
	.st18{clip-path:url(#SVGID_2_);fill:#2AA8D9;}
	.st19{clip-path:url(#SVGID_2_);fill:#2AA7D8;}
	.st20{clip-path:url(#SVGID_2_);fill:#2AA6D7;}
	.st21{clip-path:url(#SVGID_2_);fill:#29A5D6;}
	.st22{clip-path:url(#SVGID_2_);fill:#29A4D5;}
	.st23{clip-path:url(#SVGID_2_);fill:#29A3D4;}
	.st24{clip-path:url(#SVGID_2_);fill:#28A2D3;}
	.st25{clip-path:url(#SVGID_2_);fill:#28A1D2;}
	.st26{clip-path:url(#SVGID_2_);fill:#28A0D1;}
	.st27{clip-path:url(#SVGID_2_);fill:#279FD0;}
	.st28{clip-path:url(#SVGID_2_);fill:#279ECF;}
	.st29{clip-path:url(#SVGID_2_);fill:#269DCE;}
	.st30{clip-path:url(#SVGID_2_);fill:#269CCD;}
	.st31{clip-path:url(#SVGID_2_);fill:#269BCC;}
	.st32{clip-path:url(#SVGID_2_);fill:#259BCB;}
	.st33{clip-path:url(#SVGID_2_);fill:#259ACB;}
	.st34{clip-path:url(#SVGID_2_);fill:#2599CA;}
	.st35{clip-path:url(#SVGID_2_);fill:#2499C9;}
	.st36{clip-path:url(#SVGID_2_);fill:#2498C9;}
	.st37{clip-path:url(#SVGID_2_);fill:#2497C8;}
	.st38{clip-path:url(#SVGID_2_);fill:#2497C7;}
	.st39{clip-path:url(#SVGID_2_);fill:#2396C7;}
	.st40{clip-path:url(#SVGID_2_);fill:#2395C6;}
	.st41{clip-path:url(#SVGID_2_);fill:#2395C5;}
	.st42{clip-path:url(#SVGID_2_);fill:#2394C5;}
	.st43{clip-path:url(#SVGID_2_);fill:#2393C4;}
	.st44{clip-path:url(#SVGID_2_);fill:#2293C3;}
	.st45{clip-path:url(#SVGID_2_);fill:#2292C3;}
	.st46{clip-path:url(#SVGID_2_);fill:#2291C2;}
	.st47{clip-path:url(#SVGID_2_);fill:#2291C1;}
	.st48{clip-path:url(#SVGID_2_);fill:#2290C1;}
	.st49{clip-path:url(#SVGID_2_);fill:#218FC0;}
	.st50{clip-path:url(#SVGID_2_);fill:#218FBF;}
	.st51{clip-path:url(#SVGID_2_);fill:#218EBF;}
	.st52{clip-path:url(#SVGID_2_);fill:#218DBE;}
	.st53{clip-path:url(#SVGID_2_);fill:#208DBE;}
	.st54{clip-path:url(#SVGID_2_);fill:#208CBD;}
	.st55{clip-path:url(#SVGID_2_);fill:#208BBC;}
	.st56{clip-path:url(#SVGID_2_);fill:#1F8ABB;}
	.st57{clip-path:url(#SVGID_2_);fill:#1F8ABA;}
	.st58{clip-path:url(#SVGID_2_);fill:#1F89BA;}
	.st59{clip-path:url(#SVGID_2_);fill:#1F88B9;}
	.st60{clip-path:url(#SVGID_2_);fill:#1E88B8;}
	.st61{clip-path:url(#SVGID_2_);fill:#1E87B8;}
	.st62{clip-path:url(#SVGID_2_);fill:#1E86B7;}
	.st63{clip-path:url(#SVGID_2_);fill:#1D85B6;}
	.st64{clip-path:url(#SVGID_2_);fill:#1D84B5;}
	.st65{clip-path:url(#SVGID_2_);fill:#1D83B4;}
	.st66{clip-path:url(#SVGID_2_);fill:#1C83B3;}
	.st67{clip-path:url(#SVGID_2_);fill:#1C82B3;}
	.st68{clip-path:url(#SVGID_2_);fill:#1C81B2;}
	.st69{clip-path:url(#SVGID_2_);fill:#1C80B1;}
	.st70{clip-path:url(#SVGID_2_);fill:#1B80B1;}
	.st71{clip-path:url(#SVGID_2_);fill:#1B7FB0;}
	.st72{clip-path:url(#SVGID_2_);fill:#1B7EAF;}
	.st73{clip-path:url(#SVGID_2_);fill:#1A7DAE;}
	.st74{clip-path:url(#SVGID_2_);fill:#1A7CAD;}
	.st75{clip-path:url(#SVGID_2_);fill:#1A7BAC;}
	.st76{clip-path:url(#SVGID_2_);fill:#197BAC;}
	.st77{clip-path:url(#SVGID_2_);fill:#197AAB;}
	.st78{clip-path:url(#SVGID_2_);fill:#1979AA;}
	.st79{clip-path:url(#SVGID_2_);fill:#1878AA;}
	.st80{clip-path:url(#SVGID_2_);fill:#1878A9;}
	.st81{clip-path:url(#SVGID_2_);fill:#1877A9;}
	.st82{clip-path:url(#SVGID_2_);fill:#1777A8;}
	.st83{clip-path:url(#SVGID_2_);fill:#1776A7;}
	.st84{clip-path:url(#SVGID_2_);fill:#1676A7;}
	.st85{clip-path:url(#SVGID_2_);fill:#1675A6;}
	.st86{clip-path:url(#SVGID_2_);fill:#1574A5;}
	.st87{clip-path:url(#SVGID_2_);fill:#1573A5;}
	.st88{clip-path:url(#SVGID_2_);fill:#1573A4;}
	.st89{clip-path:url(#SVGID_2_);fill:#1472A4;}
	.st90{clip-path:url(#SVGID_2_);fill:#1472A3;}
	.st91{clip-path:url(#SVGID_2_);fill:#1371A3;}
	.st92{clip-path:url(#SVGID_2_);fill:#1371A2;}
	.st93{clip-path:url(#SVGID_2_);fill:#1370A2;}
	.st94{clip-path:url(#SVGID_2_);fill:#1370A1;}
	.st95{clip-path:url(#SVGID_2_);fill:#126FA1;}
	.st96{clip-path:url(#SVGID_2_);fill:#126EA0;}
	.st97{clip-path:url(#SVGID_2_);fill:#116D9F;}
	.st98{clip-path:url(#SVGID_2_);fill:#116C9E;}
	.st99{clip-path:url(#SVGID_2_);fill:#106C9E;}
	.st100{clip-path:url(#SVGID_2_);fill:#106B9D;}
	.st101{clip-path:url(#SVGID_2_);fill:#0F6B9D;}
	.st102{clip-path:url(#SVGID_2_);fill:#0F6A9C;}
	.st103{clip-path:url(#SVGID_2_);fill:#0E699B;}
	.st104{clip-path:url(#SVGID_2_);fill:#0D689A;}
	.st105{clip-path:url(#SVGID_2_);fill:#0D6799;}
	.st106{clip-path:url(#SVGID_2_);fill:#0C6799;}
	.st107{clip-path:url(#SVGID_2_);fill:#0C6698;}
	.st108{clip-path:url(#SVGID_2_);fill:#0B6698;}
	.st109{clip-path:url(#SVGID_2_);fill:#0A6597;}
	.st110{clip-path:url(#SVGID_2_);fill:#096496;}
	.st111{clip-path:url(#SVGID_2_);fill:#086395;}
	.st112{clip-path:url(#SVGID_2_);fill:#076395;}
	.st113{clip-path:url(#SVGID_2_);fill:#076294;}
	.st114{clip-path:url(#SVGID_2_);fill:#066194;}
	.st115{clip-path:url(#SVGID_2_);fill:#056193;}
	.st116{clip-path:url(#SVGID_2_);fill:#056093;}
	.st117{clip-path:url(#SVGID_2_);fill:#046092;}
	.st118{clip-path:url(#SVGID_2_);fill:#045F92;}
	.st119{clip-path:url(#SVGID_2_);fill:#035F91;}
	.st120{clip-path:url(#SVGID_2_);fill:#035E91;}
	.st121{clip-path:url(#SVGID_2_);fill:#025E91;}
	.st122{clip-path:url(#SVGID_2_);fill:#025D90;}
	.st123{clip-path:url(#SVGID_2_);fill:#015C8F;}
	.st124{clip-path:url(#SVGID_2_);fill:#005B8E;}
	.st125{clip-path:url(#SVGID_2_);fill:#005B8F;}
	.st126{clip-path:url(#SVGID_2_);fill:#005C90;}
	.st127{clip-path:url(#SVGID_2_);fill:#015D90;}
	.st128{clip-path:url(#SVGID_2_);fill:#015D91;}
	.st129{clip-path:url(#SVGID_2_);fill:#015E92;}
	.st130{clip-path:url(#SVGID_2_);fill:#015E93;}
	.st131{clip-path:url(#SVGID_2_);fill:#015F94;}
	.st132{clip-path:url(#SVGID_2_);fill:#026094;}
	.st133{clip-path:url(#SVGID_2_);fill:#026095;}
	.st134{clip-path:url(#SVGID_2_);fill:#026196;}
	.st135{clip-path:url(#SVGID_2_);fill:#036197;}
	.st136{clip-path:url(#SVGID_2_);fill:#036298;}
	.st137{clip-path:url(#SVGID_2_);fill:#036299;}
	.st138{clip-path:url(#SVGID_2_);fill:#04639A;}
	.st139{clip-path:url(#SVGID_2_);fill:#04649A;}
	.st140{clip-path:url(#SVGID_2_);fill:#04649B;}
	.st141{clip-path:url(#SVGID_2_);fill:#05659C;}
	.st142{clip-path:url(#SVGID_2_);fill:#05659D;}
	.st143{clip-path:url(#SVGID_2_);fill:#05669E;}
	.st144{clip-path:url(#SVGID_2_);fill:#05679F;}
	.st145{clip-path:url(#SVGID_2_);fill:#0667A0;}
	.st146{clip-path:url(#SVGID_2_);fill:#0668A1;}
	.st147{clip-path:url(#SVGID_2_);fill:#0668A2;}
	.st148{clip-path:url(#SVGID_2_);fill:#0669A3;}
	.st149{clip-path:url(#SVGID_2_);fill:#066AA4;}
	.st150{clip-path:url(#SVGID_2_);fill:#076AA5;}
	.st151{clip-path:url(#SVGID_2_);fill:#076BA6;}
	.st152{clip-path:url(#SVGID_2_);fill:#076CA7;}
	.st153{clip-path:url(#SVGID_2_);fill:#076CA8;}
	.st154{clip-path:url(#SVGID_2_);fill:#076DA9;}
	.st155{clip-path:url(#SVGID_2_);fill:#076EAA;}
	.st156{clip-path:url(#SVGID_2_);fill:#076EAB;}
	.st157{clip-path:url(#SVGID_2_);fill:#076FAC;}
	.st158{clip-path:url(#SVGID_2_);fill:#0770AD;}
	.st159{clip-path:url(#SVGID_2_);fill:#0770AE;}
	.st160{clip-path:url(#SVGID_2_);fill:#0771AF;}
	.st161{clip-path:url(#SVGID_2_);fill:#0772B0;}
	.st162{clip-path:url(#SVGID_2_);fill:#0773B1;}
	.st163{clip-path:url(#SVGID_2_);fill:#0773B2;}
	.st164{clip-path:url(#SVGID_2_);fill:#0774B4;}
	.st165{fill:#231F20;}
	.st166{fill:#FFFFFF;}
</style>
<g>
	<g>
		<g>
			<defs>
				<path id="SVGID_1_" d="M0-0.6v384h384v-384H0z"/>
			</defs>
			<clipPath id="SVGID_2_">
				<use xlink:href="#SVGID_1_"  style="overflow:visible;"/>
			</clipPath>
			<polygon class="st0" points="3.1,-0.6 0,2.5 0,-0.6 			"/>
			<polygon class="st1" points="6.2,-0.6 0,5.6 0,2.5 3.1,-0.6 			"/>
			<polygon class="st2" points="9.3,-0.6 0,8.7 0,5.6 6.2,-0.6 			"/>
			<polygon class="st3" points="12.5,-0.6 0,11.8 0,8.7 9.3,-0.6 			"/>
			<polygon class="st4" points="15.6,-0.6 0,14.9 0,11.8 12.5,-0.6 			"/>
			<polygon class="st5" points="18.7,-0.6 0,18.1 0,14.9 15.6,-0.6 			"/>
			<polygon class="st6" points="21.8,-0.6 0,21.2 0,18.1 18.7,-0.6 			"/>
			<polygon class="st7" points="24.9,-0.6 0,24.3 0,21.2 21.8,-0.6 			"/>
			<polygon class="st8" points="28,-0.6 0,27.4 0,24.3 24.9,-0.6 			"/>
			<polygon class="st9" points="31.1,-0.6 0,30.5 0,27.4 28,-0.6 			"/>
			<polygon class="st10" points="34.2,-0.6 0,33.6 0,30.5 31.1,-0.6 			"/>
			<polygon class="st11" points="37.4,-0.6 0,36.7 0,33.6 34.2,-0.6 			"/>
			<polygon class="st12" points="40.5,-0.6 0,39.9 0,36.7 37.4,-0.6 			"/>
			<polygon class="st13" points="43.6,-0.6 0,43 0,39.9 40.5,-0.6 			"/>
			<polygon class="st14" points="46.7,-0.6 0,46.1 0,43 43.6,-0.6 			"/>
			<polygon class="st15" points="49.8,-0.6 0,49.2 0,46.1 46.7,-0.6 			"/>
			<polygon class="st16" points="52.9,-0.6 0,52.3 0,49.2 49.8,-0.6 			"/>
			<polygon class="st17" points="56,-0.6 0,55.4 0,52.3 52.9,-0.6 			"/>
			<polygon class="st18" points="59.2,-0.6 0,58.5 0,55.4 56,-0.6 			"/>
			<polygon class="st19" points="62.3,-0.6 0,61.6 0,58.5 59.2,-0.6 			"/>
			<polygon class="st19" points="65.4,-0.6 0,64.8 0,61.6 62.3,-0.6 			"/>
			<polygon class="st20" points="68.5,-0.6 0,67.9 0,64.8 65.4,-0.6 			"/>
			<polygon class="st21" points="71.6,-0.6 0,71 0,67.9 68.5,-0.6 			"/>
			<polygon class="st22" points="74.7,-0.6 0,74.1 0,71 71.6,-0.6 			"/>
			<polygon class="st22" points="77.8,-0.6 0,77.2 0,74.1 74.7,-0.6 			"/>
			<polygon class="st23" points="81,-0.6 0,80.3 0,77.2 77.8,-0.6 			"/>
			<polygon class="st24" points="84.1,-0.6 0,83.4 0,80.3 81,-0.6 			"/>
			<polygon class="st24" points="87.2,-0.6 0,86.6 0,83.4 84.1,-0.6 			"/>
			<polygon class="st25" points="90.3,-0.6 0,89.7 0,86.6 87.2,-0.6 			"/>
			<polygon class="st26" points="93.4,-0.6 0,92.8 0,89.7 90.3,-0.6 			"/>
			<polygon class="st27" points="96.5,-0.6 0,95.9 0,92.8 93.4,-0.6 			"/>
			<polygon class="st27" points="99.6,-0.6 0,99 0,95.9 96.5,-0.6 			"/>
			<polygon class="st28" points="102.7,-0.6 0,102.1 0,99 99.6,-0.6 			"/>
			<polygon class="st29" points="105.9,-0.6 0,105.2 0,102.1 102.7,-0.6 			"/>
			<polygon class="st29" points="109,-0.6 0,108.3 0,105.2 105.9,-0.6 			"/>
			<polygon class="st30" points="112.1,-0.6 0,111.5 0,108.3 109,-0.6 			"/>
			<polygon class="st31" points="115.2,-0.6 0,114.6 0,111.5 112.1,-0.6 			"/>
			<polygon class="st32" points="118.3,-0.6 0,117.7 0,114.6 115.2,-0.6 			"/>
			<polygon class="st33" points="121.4,-0.6 0,120.8 0,117.7 118.3,-0.6 			"/>
			<polygon class="st34" points="124.5,-0.6 0,123.9 0,120.8 121.4,-0.6 			"/>
			<polygon class="st35" points="127.7,-0.6 0,127 0,123.9 124.5,-0.6 			"/>
			<polygon class="st36" points="130.8,-0.6 0,130.1 0,127 127.7,-0.6 			"/>
			<polygon class="st37" points="133.9,-0.6 0,133.3 0,130.1 130.8,-0.6 			"/>
			<polygon class="st38" points="137,-0.6 0,136.4 0,133.3 133.9,-0.6 			"/>
			<polygon class="st39" points="140.1,-0.6 0,139.5 0,136.4 137,-0.6 			"/>
			<polygon class="st40" points="143.2,-0.6 0,142.6 0,139.5 140.1,-0.6 			"/>
			<polygon class="st41" points="146.3,-0.6 0,145.7 0,142.6 143.2,-0.6 			"/>
			<polygon class="st42" points="149.4,-0.6 0,148.8 0,145.7 146.3,-0.6 			"/>
			<polygon class="st43" points="152.6,-0.6 0,151.9 0,148.8 149.4,-0.6 			"/>
			<polygon class="st44" points="155.7,-0.6 0,155.1 0,151.9 152.6,-0.6 			"/>
			<polygon class="st45" points="158.8,-0.6 0,158.2 0,155.1 155.7,-0.6 			"/>
			<polygon class="st46" points="161.9,-0.6 0,161.3 0,158.2 158.8,-0.6 			"/>
			<polygon class="st47" points="165,-0.6 0,164.4 0,161.3 161.9,-0.6 			"/>
			<polygon class="st48" points="168.1,-0.6 0,167.5 0,164.4 165,-0.6 			"/>
			<polygon class="st49" points="171.2,-0.6 0,170.6 0,167.5 168.1,-0.6 			"/>
			<polygon class="st50" points="174.4,-0.6 0,173.7 0,170.6 171.2,-0.6 			"/>
			<polygon class="st51" points="177.5,-0.6 0,176.8 0,173.7 174.4,-0.6 			"/>
			<polygon class="st52" points="180.6,-0.6 0,180 0,176.8 177.5,-0.6 			"/>
			<polygon class="st53" points="183.7,-0.6 0,183.1 0,180 180.6,-0.6 			"/>
			<polygon class="st54" points="186.8,-0.6 0,186.2 0,183.1 183.7,-0.6 			"/>
			<polygon class="st55" points="189.9,-0.6 0,189.3 0,186.2 186.8,-0.6 			"/>
			<polygon class="st55" points="193,-0.6 0,192.4 0,189.3 189.9,-0.6 			"/>
			<polygon class="st56" points="196.2,-0.6 0,195.5 0,192.4 193,-0.6 			"/>
			<polygon class="st57" points="199.3,-0.6 0,198.6 0,195.5 196.2,-0.6 			"/>
			<polygon class="st58" points="202.4,-0.6 0,201.8 0,198.6 199.3,-0.6 			"/>
			<polygon class="st59" points="205.5,-0.6 0,204.9 0,201.8 202.4,-0.6 			"/>
			<polygon class="st60" points="208.6,-0.6 0,208 0,204.9 205.5,-0.6 			"/>
			<polygon class="st61" points="211.7,-0.6 0,211.1 0,208 208.6,-0.6 			"/>
			<polygon class="st62" points="214.8,-0.6 0,214.2 0,211.1 211.7,-0.6 			"/>
			<polygon class="st62" points="217.9,-0.6 0,217.3 0,214.2 214.8,-0.6 			"/>
			<polygon class="st63" points="221.1,-0.6 0,220.4 0,217.3 217.9,-0.6 			"/>
			<polygon class="st64" points="224.2,-0.6 0,223.5 0,220.4 221.1,-0.6 			"/>
			<polygon class="st64" points="227.3,-0.6 0,226.7 0,223.5 224.2,-0.6 			"/>
			<polygon class="st65" points="230.4,-0.6 0,229.8 0,226.7 227.3,-0.6 			"/>
			<polygon class="st66" points="233.5,-0.6 0,232.9 0,229.8 230.4,-0.6 			"/>
			<polygon class="st67" points="236.6,-0.6 0,236 0,232.9 233.5,-0.6 			"/>
			<polygon class="st68" points="239.7,-0.6 0,239.1 0,236 236.6,-0.6 			"/>
			<polygon class="st68" points="242.9,-0.6 0,242.2 0,239.1 239.7,-0.6 			"/>
			<polygon class="st69" points="246,-0.6 0,245.3 0,242.2 242.9,-0.6 			"/>
			<polygon class="st70" points="249.1,-0.6 0,248.5 0,245.3 246,-0.6 			"/>
			<polygon class="st71" points="252.2,-0.6 0,251.6 0,248.5 249.1,-0.6 			"/>
			<polygon class="st72" points="255.3,-0.6 0,254.7 0,251.6 252.2,-0.6 			"/>
			<polygon class="st72" points="258.4,-0.6 0,257.8 0,254.7 255.3,-0.6 			"/>
			<polygon class="st73" points="261.5,-0.6 0,260.9 0,257.8 258.4,-0.6 			"/>
			<polygon class="st73" points="264.6,-0.6 0,264 0,260.9 261.5,-0.6 			"/>
			<polygon class="st74" points="267.8,-0.6 0,267.1 0,264 264.6,-0.6 			"/>
			<polygon class="st75" points="270.9,-0.6 0,270.3 0,267.1 267.8,-0.6 			"/>
			<polygon class="st76" points="274,-0.6 0,273.4 0,270.3 270.9,-0.6 			"/>
			<polygon class="st77" points="277.1,-0.6 0,276.5 0,273.4 274,-0.6 			"/>
			<polygon class="st77" points="280.2,-0.6 0,279.6 0,276.5 277.1,-0.6 			"/>
			<polygon class="st78" points="283.3,-0.6 0,282.7 0,279.6 280.2,-0.6 			"/>
			<polygon class="st79" points="286.4,-0.6 0,285.8 0,282.7 283.3,-0.6 			"/>
			<polygon class="st80" points="289.6,-0.6 0,288.9 0,285.8 286.4,-0.6 			"/>
			<polygon class="st81" points="292.7,-0.6 0,292 0,288.9 289.6,-0.6 			"/>
			<polygon class="st82" points="295.8,-0.6 0,295.2 0,292 292.7,-0.6 			"/>
			<polygon class="st83" points="298.9,-0.6 0,298.3 0,295.2 295.8,-0.6 			"/>
			<polygon class="st84" points="302,-0.6 0,301.4 0,298.3 298.9,-0.6 			"/>
			<polygon class="st85" points="305.1,-0.6 0,304.5 0,301.4 302,-0.6 			"/>
			<polygon class="st85" points="308.2,-0.6 0,307.6 0,304.5 305.1,-0.6 			"/>
			<polygon class="st86" points="311.4,-0.6 0,310.7 0,307.6 308.2,-0.6 			"/>
			<polygon class="st87" points="314.5,-0.6 0,313.8 0,310.7 311.4,-0.6 			"/>
			<polygon class="st88" points="317.6,-0.6 0,317 0,313.8 314.5,-0.6 			"/>
			<polygon class="st89" points="320.7,-0.6 0,320.1 0,317 317.6,-0.6 			"/>
			<polygon class="st90" points="323.8,-0.6 0,323.2 0,320.1 320.7,-0.6 			"/>
			<polygon class="st91" points="326.9,-0.6 0,326.3 0,323.2 323.8,-0.6 			"/>
			<polygon class="st92" points="330,-0.6 0,329.4 0,326.3 326.9,-0.6 			"/>
			<polygon class="st93" points="333.1,-0.6 0,332.5 0,329.4 330,-0.6 			"/>
			<polygon class="st94" points="336.3,-0.6 0,335.6 0,332.5 333.1,-0.6 			"/>
			<polygon class="st95" points="339.4,-0.6 0,338.7 0,335.6 336.3,-0.6 			"/>
			<polygon class="st96" points="342.5,-0.6 0,341.9 0,338.7 339.4,-0.6 			"/>
			<polygon class="st96" points="345.6,-0.6 0,345 0,341.9 342.5,-0.6 			"/>
			<polygon class="st97" points="348.7,-0.6 0,348.1 0,345 345.6,-0.6 			"/>
			<polygon class="st97" points="351.8,-0.6 0,351.2 0,348.1 348.7,-0.6 			"/>
			<polygon class="st98" points="354.9,-0.6 0,354.3 0,351.2 351.8,-0.6 			"/>
			<polygon class="st99" points="358.1,-0.6 0,357.4 0,354.3 354.9,-0.6 			"/>
			<polygon class="st100" points="361.2,-0.6 0,360.5 0,357.4 358.1,-0.6 			"/>
			<polygon class="st101" points="364.3,-0.6 0,363.7 0,360.5 361.2,-0.6 			"/>
			<polygon class="st102" points="367.4,-0.6 0,366.8 0,363.7 364.3,-0.6 			"/>
			<polygon class="st102" points="370.5,-0.6 0,369.9 0,366.8 367.4,-0.6 			"/>
			<polygon class="st103" points="373.6,-0.6 0,373 0,369.9 370.5,-0.6 			"/>
			<polygon class="st103" points="376.7,-0.6 0,376.1 0,373 373.6,-0.6 			"/>
			<polygon class="st104" points="379.8,-0.6 0,379.2 0,376.1 376.7,-0.6 			"/>
			<polygon class="st104" points="383,-0.6 0,382.3 0,379.2 379.8,-0.6 			"/>
			<polygon class="st105" points="384,1.5 2.1,383.4 0,383.4 0,382.3 383,-0.6 384,-0.6 			"/>
			<polygon class="st106" points="384,4.6 5.2,383.4 2.1,383.4 384,1.5 			"/>
			<polygon class="st107" points="384,7.7 8.3,383.4 5.2,383.4 384,4.6 			"/>
			<polygon class="st108" points="384,10.8 11.4,383.4 8.3,383.4 384,7.7 			"/>
			<polygon class="st109" points="384,13.9 14.5,383.4 11.4,383.4 384,10.8 			"/>
			<polygon class="st109" points="384,17 17.6,383.4 14.5,383.4 384,13.9 			"/>
			<polygon class="st110" points="384,20.1 20.8,383.4 17.6,383.4 384,17 			"/>
			<polygon class="st110" points="384,23.2 23.9,383.4 20.8,383.4 384,20.1 			"/>
			<polygon class="st111" points="384,26.4 27,383.4 23.9,383.4 384,23.2 			"/>
			<polygon class="st112" points="384,29.5 30.1,383.4 27,383.4 384,26.4 			"/>
			<polygon class="st113" points="384,32.6 33.2,383.4 30.1,383.4 384,29.5 			"/>
			<polygon class="st114" points="384,35.7 36.3,383.4 33.2,383.4 384,32.6 			"/>
			<polygon class="st115" points="384,38.8 39.4,383.4 36.3,383.4 384,35.7 			"/>
			<polygon class="st116" points="384,41.9 42.6,383.4 39.4,383.4 384,38.8 			"/>
			<polygon class="st117" points="384,45 45.7,383.4 42.6,383.4 384,41.9 			"/>
			<polygon class="st118" points="384,48.2 48.8,383.4 45.7,383.4 384,45 			"/>
			<polygon class="st119" points="384,51.3 51.9,383.4 48.8,383.4 384,48.2 			"/>
			<polygon class="st120" points="384,54.4 55,383.4 51.9,383.4 384,51.3 			"/>
			<polygon class="st121" points="384,57.5 58.1,383.4 55,383.4 384,54.4 			"/>
			<polygon class="st122" points="384,60.6 61.2,383.4 58.1,383.4 384,57.5 			"/>
			<polygon class="st122" points="384,63.7 64.3,383.4 61.2,383.4 384,60.6 			"/>
			<polygon class="st123" points="384,66.8 67.5,383.4 64.3,383.4 384,63.7 			"/>
			<polygon class="st123" points="384,69.9 70.6,383.4 67.5,383.4 384,66.8 			"/>
			<polygon class="st124" points="384,73.1 73.7,383.4 70.6,383.4 384,69.9 			"/>
			<polygon class="st124" points="384,76.2 76.8,383.4 73.7,383.4 384,73.1 			"/>
			<polygon class="st124" points="384,83.7 84.3,383.4 76.8,383.4 384,76.2 			"/>
			<polygon class="st125" points="384,91.2 91.8,383.4 84.3,383.4 384,83.7 			"/>
			<polygon class="st126" points="384,98.7 99.3,383.4 91.8,383.4 384,91.2 			"/>
			<polygon class="st127" points="384,106.1 106.8,383.4 99.3,383.4 384,98.7 			"/>
			<polygon class="st128" points="384,113.6 114.3,383.4 106.8,383.4 384,106.1 			"/>
			<polygon class="st129" points="384,121.1 121.8,383.4 114.3,383.4 384,113.6 			"/>
			<polygon class="st130" points="384,128.6 129.2,383.4 121.8,383.4 384,121.1 			"/>
			<polygon class="st131" points="384,136.1 136.7,383.4 129.2,383.4 384,128.6 			"/>
			<polygon class="st132" points="384,143.6 144.2,383.4 136.7,383.4 384,136.1 			"/>
			<polygon class="st133" points="384,151.1 151.7,383.4 144.2,383.4 384,143.6 			"/>
			<polygon class="st134" points="384,158.6 159.2,383.4 151.7,383.4 384,151.1 			"/>
			<polygon class="st135" points="384,166.1 166.7,383.4 159.2,383.4 384,158.6 			"/>
			<polygon class="st136" points="384,173.6 174.2,383.4 166.7,383.4 384,166.1 			"/>
			<polygon class="st137" points="384,181.1 181.7,383.4 174.2,383.4 384,173.6 			"/>
			<polygon class="st138" points="384,188.6 189.2,383.4 181.7,383.4 384,181.1 			"/>
			<polygon class="st139" points="384,196.1 196.7,383.4 189.2,383.4 384,188.6 			"/>
			<polygon class="st140" points="384,203.6 204.2,383.4 196.7,383.4 384,196.1 			"/>
			<polygon class="st141" points="384,211 211.7,383.4 204.2,383.4 384,203.6 			"/>
			<polygon class="st142" points="384,218.5 219.2,383.4 211.7,383.4 384,211 			"/>
			<polygon class="st143" points="384,226 226.7,383.4 219.2,383.4 384,218.5 			"/>
			<polygon class="st144" points="384,233.5 234.1,383.4 226.7,383.4 384,226 			"/>
			<polygon class="st145" points="384,241 241.6,383.4 234.1,383.4 384,233.5 			"/>
			<polygon class="st146" points="384,248.5 249.1,383.4 241.6,383.4 384,241 			"/>
			<polygon class="st147" points="384,256 256.6,383.4 249.1,383.4 384,248.5 			"/>
			<polygon class="st148" points="384,263.5 264.1,383.4 256.6,383.4 384,256 			"/>
			<polygon class="st149" points="384,271 271.6,383.4 264.1,383.4 384,263.5 			"/>
			<polygon class="st150" points="384,278.5 279.1,383.4 271.6,383.4 384,271 			"/>
			<polygon class="st151" points="384,286 286.6,383.4 279.1,383.4 384,278.5 			"/>
			<polygon class="st152" points="384,293.5 294.1,383.4 286.6,383.4 384,286 			"/>
			<polygon class="st153" points="384,301 301.6,383.4 294.1,383.4 384,293.5 			"/>
			<polygon class="st154" points="384,308.4 309.1,383.4 301.6,383.4 384,301 			"/>
			<polygon class="st155" points="384,315.9 316.6,383.4 309.1,383.4 384,308.4 			"/>
			<polygon class="st156" points="384,323.4 324.1,383.4 316.6,383.4 384,315.9 			"/>
			<polygon class="st157" points="384,330.9 331.6,383.4 324.1,383.4 384,323.4 			"/>
			<polygon class="st158" points="384,338.4 339,383.4 331.6,383.4 384,330.9 			"/>
			<polygon class="st159" points="384,345.9 346.5,383.4 339,383.4 384,338.4 			"/>
			<polygon class="st160" points="384,353.4 354,383.4 346.5,383.4 384,345.9 			"/>
			<polygon class="st161" points="384,360.9 361.5,383.4 354,383.4 384,353.4 			"/>
			<polygon class="st162" points="384,368.4 369,383.4 361.5,383.4 384,360.9 			"/>
			<polygon class="st163" points="384,375.9 376.5,383.4 369,383.4 384,368.4 			"/>
			<polygon class="st164" points="384,383.4 384,383.4 376.5,383.4 384,375.9 			"/>
			<path class="st164" d="M384,383.4L384,383.4L384,383.4z"/>
		</g>
	</g>
	<g>
		<path class="st165" d="M543.8,230.3c6.6,6.4,10.3,13.7,11.1,21.9h-12.7c-1.4-6.2-4.2-11.1-8.4-14.7c-4.2-3.6-10.1-5.4-17.8-5.4
			c-9.3,0-16.8,3.3-22.5,10c-5.7,6.7-8.6,16.9-8.6,30.6c0,11.3,2.6,20.4,7.7,27.4c5.2,7,12.9,10.5,23.1,10.5
			c9.4,0,16.6-3.7,21.5-11.1c2.6-3.9,4.6-9,5.8-15.3h12.7c-1.1,10.1-4.8,18.6-11.1,25.5c-7.5,8.2-17.7,12.4-30.5,12.4
			c-11,0-20.3-3.4-27.8-10.1c-9.9-8.9-14.8-22.8-14.8-41.4c0-14.2,3.7-25.8,11.1-34.9c8-9.9,19.1-14.8,33.2-14.8
			C527.8,220.6,537.1,223.8,543.8,230.3z"/>
		<path class="st165" d="M567.1,222.9h11.8v35.9c2.8-3.5,5.3-6,7.5-7.5c3.8-2.5,8.5-3.7,14.2-3.7c10.2,0,17.1,3.6,20.7,10.7
			c2,3.9,2.9,9.3,2.9,16.2v45h-12.1v-44.2c0-5.1-0.7-8.9-2-11.3c-2.1-3.8-6.2-5.8-12-5.8c-4.9,0-9.3,1.7-13.3,5c-4,3.4-6,9.7-6,19
			v37.2h-11.8V222.9z"/>
		<path class="st165" d="M675.5,277c2.7-0.3,4.5-1.5,5.4-3.4c0.5-1.1,0.8-2.6,0.8-4.5c0-4-1.4-7-4.3-8.8c-2.9-1.8-6.9-2.7-12.2-2.7
			c-6.1,0-10.5,1.7-13.1,5c-1.4,1.8-2.4,4.6-2.8,8.2h-11c0.2-8.7,3-14.7,8.4-18.1s11.6-5.1,18.7-5.1c8.2,0,14.9,1.6,20.1,4.7
			c5.1,3.1,7.6,8,7.6,14.7v40.4c0,1.2,0.3,2.2,0.8,2.9c0.5,0.7,1.6,1.1,3.2,1.1c0.5,0,1.1,0,1.8-0.1c0.7-0.1,1.4-0.2,2.1-0.3v8.7
			c-1.8,0.5-3.2,0.9-4.2,1c-1,0.1-2.3,0.2-3.9,0.2c-4.1,0-7-1.4-8.8-4.3c-1-1.5-1.6-3.7-2-6.5c-2.4,3.1-5.8,5.9-10.3,8.2
			c-4.5,2.3-9.4,3.5-14.9,3.5c-6.5,0-11.8-2-15.9-5.9s-6.2-8.9-6.2-14.8c0-6.5,2-11.5,6.1-15.1c4.1-3.6,9.4-5.8,16-6.6L675.5,277z
			 M650.7,308.8c2.5,2,5.4,2.9,8.8,2.9c4.1,0,8.2-1,12-2.9c6.5-3.2,9.8-8.4,9.8-15.6v-9.5c-1.4,0.9-3.3,1.7-5.6,2.3
			c-2.3,0.6-4.5,1.1-6.7,1.3l-7.1,0.9c-4.3,0.6-7.5,1.5-9.6,2.7c-3.6,2-5.5,5.3-5.5,9.8C647,304.1,648.2,306.8,650.7,308.8z"/>
		<path class="st165" d="M709.8,223.3h11.8v96.1h-11.8V223.3z"/>
		<path class="st165" d="M736.2,223.3H748v96.1h-11.8V223.3z"/>
		<path class="st165" d="M806.3,251.2c4.6,2.3,8.2,5.4,10.6,9.1c2.3,3.5,3.9,7.7,4.7,12.4c0.7,3.2,1,8.4,1,15.4h-51
			c0.2,7.1,1.9,12.8,5,17.2c3.1,4.3,7.9,6.5,14.5,6.5c6.1,0,11-2,14.6-6.1c2-2.4,3.5-5.1,4.3-8.2h11.6c-0.3,2.6-1.3,5.4-3,8.6
			c-1.7,3.2-3.6,5.7-5.8,7.8c-3.6,3.5-7.9,5.8-13.2,7.1c-2.8,0.7-6,1-9.5,1c-8.7,0-16-3.2-22-9.5c-6-6.3-9-15.2-9-26.7
			c0-11.3,3-20.4,9.1-27.4c6.1-7,14-10.5,23.8-10.5C796.8,247.7,801.6,248.9,806.3,251.2z M810.5,278.7c-0.5-5.1-1.6-9.2-3.3-12.2
			c-3.2-5.7-8.5-8.5-16-8.5c-5.4,0-9.9,2-13.5,5.9c-3.6,3.9-5.6,8.9-5.8,14.9H810.5z"/>
		<path class="st165" d="M834.2,249.3h11.2v9.9c3.3-4.1,6.8-7,10.5-8.8c3.7-1.8,7.8-2.7,12.4-2.7c9.9,0,16.7,3.5,20.2,10.4
			c1.9,3.8,2.9,9.2,2.9,16.3v45h-12v-44.2c0-4.3-0.6-7.7-1.9-10.3c-2.1-4.4-5.9-6.5-11.4-6.5c-2.8,0-5.1,0.3-6.9,0.9
			c-3.2,1-6.1,2.9-8.5,5.8c-2,2.3-3.2,4.7-3.8,7.2c-0.6,2.5-0.9,6-0.9,10.6v36.7h-11.8V249.3z"/>
		<path class="st165" d="M945.3,252.1c2.2,1.5,4.5,3.8,6.8,6.7V250H963v63.7c0,8.9-1.3,15.9-3.9,21.1c-4.9,9.5-14.1,14.3-27.6,14.3
			c-7.5,0-13.8-1.7-19-5.1c-5.1-3.4-8-8.7-8.6-15.9h12c0.6,3.1,1.7,5.6,3.4,7.3c2.6,2.6,6.8,3.9,12.5,3.9c9,0,14.9-3.2,17.6-9.6
			c1.6-3.8,2.4-10.4,2.3-20.1c-2.3,3.6-5.2,6.2-8.5,8c-3.3,1.7-7.7,2.6-13.1,2.6c-7.6,0-14.2-2.7-19.8-8.1s-8.5-14.3-8.5-26.7
			c0-11.7,2.9-20.9,8.6-27.5c5.7-6.6,12.6-9.9,20.7-9.9C936.5,248.1,941.3,249.4,945.3,252.1z M946.8,264.7
			c-3.6-4.2-8.1-6.3-13.6-6.3c-8.2,0-13.9,3.9-16.9,11.6c-1.6,4.1-2.4,9.6-2.4,16.3c0,7.9,1.6,13.9,4.8,18c3.2,4.1,7.5,6.2,12.9,6.2
			c8.4,0,14.3-3.8,17.8-11.5c1.9-4.3,2.9-9.4,2.9-15.1C952.1,275.4,950.3,268.9,946.8,264.7z"/>
		<path class="st165" d="M1021.2,251.2c4.6,2.3,8.2,5.4,10.6,9.1c2.3,3.5,3.9,7.7,4.7,12.4c0.7,3.2,1,8.4,1,15.4h-51
			c0.2,7.1,1.9,12.8,5,17.2c3.1,4.3,7.9,6.5,14.5,6.5c6.1,0,11-2,14.6-6.1c2-2.4,3.5-5.1,4.3-8.2h11.6c-0.3,2.6-1.3,5.4-3,8.6
			c-1.7,3.2-3.6,5.7-5.8,7.8c-3.6,3.5-7.9,5.8-13.2,7.1c-2.8,0.7-6,1-9.5,1c-8.7,0-16-3.2-22-9.5c-6-6.3-9-15.2-9-26.7
			c0-11.3,3-20.4,9.1-27.4c6.1-7,14-10.5,23.8-10.5C1011.8,247.7,1016.5,248.9,1021.2,251.2z M1025.4,278.7
			c-0.5-5.1-1.6-9.2-3.3-12.2c-3.2-5.7-8.5-8.5-16-8.5c-5.4,0-9.9,2-13.5,5.9c-3.6,3.9-5.6,8.9-5.8,14.9H1025.4z"/>
		<path class="st165" d="M1090.2,298.3c2.9-6,8.6-11.4,17-16.3l12.6-7.3c5.6-3.3,9.6-6.1,11.8-8.4c3.6-3.6,5.4-7.8,5.4-12.5
			c0-5.5-1.6-9.8-4.9-13c-3.3-3.2-7.6-4.8-13.1-4.8c-8.1,0-13.7,3.1-16.8,9.2c-1.7,3.3-2.6,7.8-2.7,13.6h-12
			c0.1-8.2,1.6-14.8,4.5-20c5.1-9.1,14.1-13.6,27-13.6c10.7,0,18.6,2.9,23.5,8.7c4.9,5.8,7.4,12.3,7.4,19.4c0,7.5-2.6,13.9-7.9,19.2
			c-3.1,3.1-8.5,6.8-16.4,11.3l-9,5c-4.3,2.4-7.6,4.6-10.1,6.7c-4.4,3.8-7.1,8-8.2,12.6h51.2v11.1h-64.3
			C1085.6,311.3,1087.3,304.3,1090.2,298.3z"/>
		<path class="st165" d="M1215.4,240.7c4.2,7.7,6.3,18.3,6.3,31.7c0,12.7-1.9,23.3-5.7,31.6c-5.5,12-14.5,17.9-27,17.9
			c-11.3,0-19.6-4.9-25.1-14.7c-4.6-8.2-6.9-19.1-6.9-32.8c0-10.6,1.4-19.8,4.1-27.4c5.1-14.2,14.5-21.3,27.9-21.3
			C1201.3,225.7,1210,230.7,1215.4,240.7z M1203.6,303.1c3.6-5.4,5.4-15.5,5.4-30.2c0-10.6-1.3-19.4-3.9-26.3
			c-2.6-6.9-7.7-10.3-15.3-10.3c-6.9,0-12,3.3-15.2,9.8c-3.2,6.5-4.8,16.1-4.8,28.8c0,9.6,1,17.2,3.1,23c3.1,8.9,8.5,13.3,16.1,13.3
			C1195.1,311.2,1200,308.5,1203.6,303.1z"/>
		<path class="st165" d="M1232.6,253v-9c8.5-0.8,14.4-2.2,17.8-4.2c3.4-1.9,5.9-6.5,7.5-13.8h9.3v93.3h-12.6V253H1232.6z"/>
		<path class="st165" d="M1350.3,227.3v10.3c-3,2.9-7,8-12,15.2c-5,7.2-9.4,15-13.2,23.4c-3.8,8.2-6.7,15.6-8.6,22.3
			c-1.3,4.3-2.9,11.3-4.9,20.9h-13c3-17.9,9.5-35.7,19.6-53.4c6-10.4,12.3-19.3,18.8-26.9h-51.8v-11.8H1350.3z"/>
	</g>
	<g>
		<path class="st165" d="M537.6,65.4c3.6,1.5,6.6,3.8,9,6.7c2,2.4,3.7,5.1,4.8,8.1c1.2,3,1.8,6.3,1.8,10.1c0,4.6-1.2,9.1-3.5,13.5
			c-2.3,4.4-6.1,7.6-11.5,9.4c4.4,1.8,7.6,4.3,9.5,7.6c1.9,3.3,2.8,8.3,2.8,15.1v6.5c0,4.4,0.2,7.4,0.5,9c0.5,2.5,1.8,4.3,3.7,5.5
			v2.4h-22.2c-0.6-2.1-1-3.9-1.3-5.2c-0.5-2.7-0.8-5.5-0.9-8.3l-0.1-9c-0.1-6.2-1.1-10.2-3.2-12.3c-2-2-5.9-3.1-11.5-3.1h-19.7v37.8
			h-19.7V62.9h46.1C529,63.1,534,63.9,537.6,65.4z M495.9,79.7v25.9h21.7c4.3,0,7.5-0.5,9.7-1.6c3.8-1.8,5.7-5.5,5.7-10.9
			c0-5.8-1.8-9.8-5.5-11.8c-2.1-1.1-5.2-1.7-9.3-1.7H495.9z"/>
		<path class="st165" d="M586.6,79.6h-18.9V62.3h18.9V79.6z M567.7,88.1h18.9v71.3h-18.9V88.1z"/>
		<path class="st165" d="M649.2,89.5c5,2.2,9.1,5.7,12.3,10.6c2.9,4.2,4.8,9.2,5.7,14.7c0.5,3.3,0.7,8,0.6,14.2h-51.9
			c0.3,7.2,2.8,12.2,7.5,15c2.8,1.8,6.3,2.7,10.3,2.7c4.2,0,7.7-1.1,10.4-3.3c1.4-1.2,2.7-2.8,3.8-4.9h19c-0.5,4.2-2.8,8.5-6.9,12.9
			c-6.4,6.9-15.3,10.4-26.8,10.4c-9.5,0-17.9-2.9-25.1-8.8c-7.3-5.8-10.9-15.4-10.9-28.6c0-12.4,3.3-21.8,9.8-28.4
			c6.5-6.6,15.1-9.9,25.5-9.9C638.7,86.2,644.2,87.3,649.2,89.5z M621.3,105.6c-2.6,2.7-4.3,6.4-5,11h32.1c-0.3-5-2-8.7-5-11.3
			c-3-2.6-6.7-3.8-11.1-3.8C627.7,101.5,624,102.9,621.3,105.6z"/>
		<path class="st165" d="M669.4,102V88.7h9.9V68.8h18.5v19.9h11.6V102h-11.6v37.7c0,2.9,0.4,4.7,1.1,5.5c0.7,0.7,3,1.1,6.8,1.1
			c0.6,0,1.2,0,1.8,0c0.6,0,1.3-0.1,1.9-0.1V160l-8.8,0.3c-8.8,0.3-14.8-1.2-18.1-4.6c-2.1-2.1-3.1-5.4-3.1-9.9V102H669.4z"/>
		<path class="st165" d="M736.9,88.1v43c0,4.1,0.5,7.1,1.4,9.2c1.7,3.6,5,5.4,10,5.4c6.3,0,10.7-2.6,13-7.7
			c1.2-2.8,1.8-6.5,1.8-11.1V88.1h18.9v71.3h-18.1v-10.1c-0.2,0.2-0.6,0.9-1.3,2c-0.7,1.1-1.5,2.1-2.5,2.9c-2.9,2.6-5.7,4.4-8.5,5.4
			c-2.7,1-5.9,1.4-9.6,1.4c-10.5,0-17.6-3.8-21.3-11.4c-2-4.2-3.1-10.4-3.1-18.5v-43H736.9z"/>
		<path class="st165" d="M886,88.3c3.1,1.2,5.8,3.4,8.3,6.4c2,2.5,3.4,5.5,4.1,9.2c0.4,2.4,0.7,5.9,0.7,10.5l-0.1,45h-19.1V114
			c0-2.7-0.4-4.9-1.3-6.7c-1.7-3.3-4.7-5-9.2-5c-5.1,0-8.7,2.1-10.7,6.4c-1,2.3-1.5,5-1.5,8.2v42.5h-18.8v-42.5
			c0-4.2-0.4-7.3-1.3-9.2c-1.6-3.4-4.6-5.2-9.2-5.2c-5.3,0-8.9,1.7-10.7,5.2c-1,2-1.5,4.9-1.5,8.8v42.9h-18.9V88.2h18.1v10.4
			c2.3-3.7,4.5-6.3,6.5-7.9c3.6-2.8,8.3-4.2,14.1-4.2c5.5,0,9.9,1.2,13.2,3.6c2.7,2.2,4.8,5.1,6.2,8.6c2.4-4.2,5.5-7.3,9.1-9.2
			c3.8-2,8.1-2.9,12.8-2.9C879.8,86.5,882.9,87.1,886,88.3z"/>
		<path class="st165" d="M931.6,88.1v43c0,4.1,0.5,7.1,1.4,9.2c1.7,3.6,5,5.4,10,5.4c6.3,0,10.7-2.6,13-7.7
			c1.2-2.8,1.8-6.5,1.8-11.1V88.1h18.9v71.3h-18.1v-10.1c-0.2,0.2-0.6,0.9-1.3,2c-0.7,1.1-1.5,2.1-2.5,2.9c-2.9,2.6-5.7,4.4-8.5,5.4
			c-2.7,1-5.9,1.4-9.6,1.4c-10.5,0-17.6-3.8-21.3-11.4c-2-4.2-3.1-10.4-3.1-18.5v-43H931.6z"/>
		<path class="st165" d="M1033.6,63.1h68.8V80h-48.7v22.2h42.7v16.8h-42.7v40.4h-20V63.1z"/>
		<path class="st165" d="M1129.9,79.6H1111V62.3h18.9V79.6z M1111,88.1h18.9v71.3H1111V88.1z"/>
		<path class="st165" d="M1202.1,92.1c4.7,3.9,7,10.3,7,19.2v48H1190V116c0-3.8-0.5-6.6-1.5-8.6c-1.8-3.7-5.3-5.5-10.4-5.5
			c-6.3,0-10.6,2.7-12.9,8c-1.2,2.8-1.8,6.5-1.8,10.9v38.6h-18.6V88.2h18.1v10.4c2.4-3.7,4.6-6.3,6.8-7.9c3.8-2.9,8.7-4.3,14.5-4.3
			C1191.4,86.4,1197.5,88.3,1202.1,92.1z"/>
		<path class="st165" d="M1283.4,62.9V80h-28.9v79.4h-20.3V80h-29V62.9H1283.4z"/>
		<path class="st165" d="M1326.8,89.5c5,2.2,9.1,5.7,12.3,10.6c2.9,4.2,4.8,9.2,5.7,14.7c0.5,3.3,0.7,8,0.6,14.2h-51.9
			c0.3,7.2,2.8,12.2,7.5,15c2.8,1.8,6.3,2.7,10.3,2.7c4.2,0,7.7-1.1,10.4-3.3c1.4-1.2,2.7-2.8,3.8-4.9h19c-0.5,4.2-2.8,8.5-6.9,12.9
			c-6.4,6.9-15.3,10.4-26.8,10.4c-9.5,0-17.9-2.9-25.1-8.8c-7.3-5.8-10.9-15.4-10.9-28.6c0-12.4,3.3-21.8,9.8-28.4
			c6.5-6.6,15.1-9.9,25.5-9.9C1316.2,86.2,1321.8,87.3,1326.8,89.5z M1298.9,105.6c-2.6,2.7-4.3,6.4-5,11h32.1c-0.3-5-2-8.7-5-11.3
			c-3-2.6-6.7-3.8-11.1-3.8C1305.2,101.5,1301.5,102.9,1298.9,105.6z"/>
		<path class="st165" d="M1397.6,113.6c-0.3-2.7-1.2-5.1-2.7-7.2c-2.1-2.9-5.4-4.3-9.8-4.3c-6.3,0-10.6,3.1-12.9,9.4
			c-1.2,3.3-1.8,7.7-1.8,13.2c0,5.2,0.6,9.4,1.8,12.6c2.2,5.9,6.4,8.9,12.6,8.9c4.4,0,7.5-1.2,9.3-3.5c1.8-2.4,3-5.4,3.3-9.2h19
			c-0.4,5.7-2.5,11-6.2,16.1c-5.9,8.2-14.5,12.2-26,12.2c-11.5,0-19.9-3.4-25.3-10.2c-5.4-6.8-8.1-15.6-8.1-26.5
			c0-12.2,3-21.8,9-28.6c6-6.8,14.2-10.2,24.8-10.2c9,0,16.3,2,22,6c5.7,4,9.1,11.1,10.1,21.3H1397.6z"/>
		<path class="st165" d="M1478.4,88.5c3.6,1.5,6.5,3.9,8.8,7c2,2.7,3.1,5.4,3.6,8.2c0.4,2.8,0.7,7.4,0.7,13.8v41.9h-19v-43.4
			c0-3.8-0.7-6.9-1.9-9.3c-1.7-3.3-4.9-5-9.6-5c-4.9,0-8.6,1.6-11.1,4.9c-2.5,3.3-3.8,8-3.8,14.1v38.6h-18.6V63.3h18.6v34
			c2.7-4.1,5.8-7,9.3-8.7c3.5-1.6,7.3-2.5,11.2-2.5C1470.8,86.2,1474.8,86.9,1478.4,88.5z"/>
	</g>
	<g>
		<g>
			<path class="st166" d="M229.8,220c18-1.6,34.6-9.4,47.6-22.3c14.6-14.6,22.6-33.9,22.6-54.5c0-21.3-8.3-41.4-23.4-56.4
				c-15.1-15.1-35.1-23.4-56.4-23.4h-92.2c-28.1,0-50.9,22.8-50.9,50.9v205.1h57.8l0-99.1h37l14.5-57.8h-51.5v-37.2
				c0-2.3,1.9-4.1,4.1-4.1h57.7l3.4-13.8h-61.1c-9.9,0-17.9,8-17.9,17.9v50.9h47.6l-7.6,30.3h-40l0,99.1H90.7V114.3
				c0-20.5,16.7-37.2,37.2-37.2h92.2c36.4,0,66.1,29.6,66.1,66.1c0,34.9-28.4,63.3-63.3,63.3h-21l77.1,99.1h-37.6l-40.8-52.4
				l-10.9,8.4l44.9,57.7h72.5L229.8,220z"/>
		</g>
	</g>
</g>
</svg>
