<?xml version="1.0" encoding="utf-8"?>
<!-- Generator: Adobe Illustrator 19.2.0, SVG Export Plug-In . SVG Version: 6.00 Build 0)  -->
<svg version="1.1" id="Layer_1" xmlns="http://www.w3.org/2000/svg" xmlns:xlink="http://www.w3.org/1999/xlink" x="0px" y="0px"
	 viewBox="0 0 200 65.1" style="enable-background:new 0 0 200 65.1;" xml:space="preserve">
<style type="text/css">
	.st0{fill:#E2E71F;}
</style>
<g>
	<path class="st0" d="M78,19.8c0.1-0.3,0.1-0.5-0.1-0.7c-0.1-0.2-0.4-0.3-0.7-0.3c-0.3,0-0.8-0.1-1.4-0.1c-0.6,0-1.1,0-1.5,0
		c-0.4,0-0.7,0.1-1,0.1c-0.2,0.1-0.4,0.2-0.5,0.3c-0.1,0.1-0.2,0.3-0.3,0.5l-9.1,21.3h0l-1.1-21c0-0.3-0.1-0.5-0.1-0.7
		c-0.1-0.2-0.2-0.3-0.4-0.4c-0.2-0.1-0.5-0.2-0.9-0.2c-0.4,0-0.9,0-1.6,0s-1.2,0-1.6,0c-0.4,0-0.7,0.1-1,0.2
		c-0.2,0.1-0.4,0.2-0.6,0.4c-0.1,0.2-0.3,0.4-0.4,0.7l-9.3,21.1h0L46,20c0-0.3,0-0.5-0.1-0.6c-0.1-0.2-0.2-0.3-0.4-0.4
		c-0.2-0.1-0.5-0.2-0.9-0.2c-0.4,0-0.9-0.1-1.5-0.1c-0.7,0-1.3,0-1.7,0.1c-0.4,0-0.7,0.1-0.9,0.3c-0.2,0.1-0.3,0.3-0.4,0.6
		c0,0.3,0,0.6,0,1.1l1.5,24.3c0,0.4,0.1,0.7,0.2,0.9c0.1,0.2,0.3,0.4,0.6,0.5c0.3,0.1,0.7,0.2,1.2,0.2c0.5,0,1.2,0,2.1,0
		c0.7,0,1.3,0,1.8,0c0.5,0,0.8-0.1,1.1-0.2c0.3-0.1,0.5-0.3,0.7-0.5c0.2-0.2,0.3-0.5,0.5-0.8l7.7-17.6h0l1,17.7
		c0,0.3,0.1,0.5,0.2,0.7c0.1,0.2,0.3,0.3,0.5,0.4c0.3,0.1,0.6,0.2,1.1,0.2c0.5,0,1.1,0,1.9,0c0.7,0,1.3,0,1.8,0
		c0.5,0,0.9-0.1,1.2-0.2c0.3-0.1,0.6-0.3,0.7-0.5c0.2-0.2,0.3-0.5,0.5-0.8L77.6,21C77.8,20.5,78,20.1,78,19.8z"/>
	<path class="st0" d="M94,20c-0.6-0.5-1.4-0.9-2.4-1.2c-0.9-0.3-2.1-0.4-3.3-0.4c-0.9,0-1.8,0.1-2.7,0.3c-0.9,0.2-1.6,0.4-2.3,0.7
		c-0.7,0.3-1.3,0.5-1.8,0.8c-0.5,0.3-0.8,0.5-1,0.7c-0.2,0.2-0.3,0.4-0.5,0.8c-0.1,0.3-0.2,0.7-0.3,1c-0.1,0.3-0.1,0.7-0.2,1
		c0,0.3-0.1,0.5-0.1,0.7c0,0.3,0,0.5,0.1,0.6c0.1,0.1,0.2,0.2,0.4,0.2s0.5-0.1,0.9-0.3c0.4-0.2,0.9-0.5,1.5-0.7
		c0.6-0.3,1.2-0.5,1.9-0.7c0.7-0.2,1.4-0.3,2.1-0.3c1.1,0,2,0.2,2.4,0.7c0.5,0.5,0.7,1.1,0.7,1.9c0,0.7-0.1,1.3-0.4,1.9
		s-0.7,1.1-1.2,1.6c-0.5,0.4-1.2,0.8-1.9,1.1c-0.8,0.3-1.6,0.4-2.6,0.4h-2.4c-0.2,0-0.4,0.1-0.5,0.2c-0.1,0.1-0.3,0.3-0.4,0.5
		c-0.1,0.2-0.2,0.4-0.3,0.7c-0.1,0.3-0.2,0.5-0.2,0.7c-0.1,0.2-0.1,0.5-0.1,0.7c0,0.2,0,0.4,0,0.5c0,0.3,0.1,0.5,0.2,0.6
		c0.1,0.1,0.3,0.2,0.6,0.2H83c1,0,1.8,0.1,2.4,0.3s1.1,0.4,1.5,0.7c0.4,0.3,0.7,0.6,0.8,1c0.2,0.4,0.2,0.8,0.2,1.3
		c0,0.6-0.1,1.2-0.4,1.7c-0.2,0.6-0.6,1.1-1.1,1.5c-0.5,0.4-1.1,0.8-1.8,1.1c-0.7,0.3-1.6,0.4-2.6,0.4c-0.9,0-1.7-0.1-2.4-0.3
		c-0.7-0.2-1.3-0.4-1.8-0.6c-0.5-0.2-0.9-0.4-1.2-0.6c-0.3-0.2-0.5-0.3-0.7-0.3c-0.1,0-0.3,0.1-0.4,0.2c-0.1,0.1-0.2,0.3-0.3,0.5
		c-0.1,0.2-0.2,0.5-0.2,0.7c-0.1,0.3-0.1,0.5-0.2,0.8c0,0.2-0.1,0.5-0.1,0.7c0,0.2,0,0.4,0,0.5c0,0.3,0,0.6,0.1,0.8
		c0.1,0.2,0.3,0.4,0.5,0.5c0.4,0.2,0.8,0.4,1.3,0.6c0.5,0.2,1,0.4,1.6,0.5c0.6,0.1,1.2,0.2,1.8,0.3c0.6,0.1,1.3,0.1,2,0.1
		c1.5,0,2.9-0.1,4.1-0.4c1.2-0.3,2.3-0.7,3.2-1.2c0.9-0.5,1.7-1,2.3-1.7c0.6-0.6,1.1-1.3,1.5-2c0.4-0.7,0.7-1.4,0.8-2.1
		s0.3-1.4,0.3-2.1c0-0.6-0.1-1.1-0.3-1.7c-0.2-0.6-0.5-1.1-0.9-1.6c-0.4-0.5-0.9-0.9-1.6-1.3c-0.6-0.3-1.4-0.6-2.3-0.7v-0.1
		c1-0.2,1.9-0.6,2.7-1.1c0.8-0.5,1.5-1.1,2-1.8c0.5-0.7,1-1.5,1.3-2.3c0.3-0.9,0.4-1.7,0.4-2.7c0-0.9-0.1-1.7-0.4-2.4
		C95.1,21.1,94.7,20.5,94,20z"/>
	<path class="st0" d="M117.1,20.7c-0.6-0.7-1.4-1.3-2.4-1.7c-1-0.4-2.2-0.6-3.7-0.6c-0.9,0-1.7,0.1-2.4,0.2
		c-0.7,0.1-1.4,0.3-2.1,0.6c-0.6,0.2-1.2,0.6-1.7,0.9c-0.5,0.4-1,0.8-1.4,1.2c-0.7,0.7-1.3,1.5-1.8,2.4c-0.5,0.9-1,1.9-1.4,3
		c-0.4,1-0.8,2.1-1.1,3.2c-0.3,1.1-0.5,2.2-0.7,3.3c-0.2,1.1-0.3,2.1-0.4,3c-0.1,0.9-0.1,1.8-0.1,2.5c0,1.3,0.1,2.5,0.4,3.5
		s0.7,1.9,1.4,2.6c0.6,0.7,1.4,1.3,2.4,1.7c1,0.4,2.2,0.6,3.6,0.6c1.7,0,3.2-0.3,4.5-0.8c1.2-0.5,2.3-1.2,3.2-2.1
		c0.7-0.7,1.3-1.5,1.8-2.4c0.5-0.9,1-1.9,1.4-3c0.4-1,0.8-2.1,1.1-3.2c0.3-1.1,0.5-2.2,0.7-3.3c0.2-1.1,0.3-2.1,0.4-3
		c0.1-0.9,0.1-1.8,0.1-2.5c0-1.3-0.1-2.4-0.4-3.4C118.2,22.3,117.7,21.4,117.1,20.7z M113.1,28.6c-0.1,0.8-0.2,1.6-0.3,2.5
		c-0.1,0.9-0.3,1.9-0.6,2.9c-0.2,1-0.5,2-0.8,2.9c-0.3,0.9-0.6,1.8-1,2.6c-0.4,0.8-0.8,1.4-1.2,1.8c-0.4,0.4-0.8,0.7-1.3,0.9
		c-0.5,0.2-1,0.3-1.6,0.3c-1.1,0-1.8-0.3-2.3-1c-0.5-0.6-0.7-1.6-0.7-3c0-0.4,0-1,0.1-1.8c0.1-0.8,0.2-1.6,0.3-2.5
		c0.2-0.9,0.3-1.9,0.5-2.9c0.2-1,0.5-2,0.8-2.9c0.3-0.9,0.6-1.8,1-2.6c0.4-0.8,0.8-1.4,1.2-1.8c0.4-0.4,0.8-0.7,1.3-0.9
		c0.5-0.2,1-0.3,1.6-0.3c1.1,0,1.9,0.3,2.3,1c0.5,0.6,0.7,1.7,0.7,3C113.3,27.3,113.2,27.9,113.1,28.6z"/>
	<path class="st0" d="M125.4,40.8c-0.2-0.2-0.5-0.3-0.8-0.4c-0.4-0.1-0.8-0.1-1.4-0.1c-0.7,0-1.3,0.1-1.7,0.2
		c-0.4,0.1-0.7,0.3-1,0.5c-0.2,0.2-0.4,0.5-0.6,0.8c-0.2,0.3-0.3,0.7-0.4,1c-0.1,0.4-0.2,0.7-0.2,1.1c0,0.3-0.1,0.6-0.1,0.9
		c0,0.4,0,0.7,0.1,0.9c0.1,0.3,0.2,0.5,0.4,0.7s0.5,0.3,0.8,0.4c0.3,0.1,0.8,0.1,1.3,0.1c0.7,0,1.3-0.1,1.7-0.2
		c0.4-0.1,0.8-0.3,1-0.5c0.2-0.2,0.4-0.5,0.6-0.8c0.1-0.3,0.3-0.7,0.4-1c0.1-0.4,0.2-0.7,0.2-1.1c0-0.3,0.1-0.6,0.1-0.8
		c0-0.3,0-0.6-0.1-0.9C125.7,41.2,125.6,41,125.4,40.8z"/>
	<path class="st0" d="M145.6,41.9h-8.7l4.4-22.3c0-0.1,0-0.3-0.1-0.4c-0.1-0.1-0.2-0.2-0.4-0.3c-0.2-0.1-0.5-0.1-0.8-0.2
		c-0.4,0-0.8-0.1-1.3-0.1c-0.6,0-1,0-1.4,0.1c-0.4,0-0.7,0.1-0.9,0.2c-0.2,0.1-0.4,0.2-0.5,0.3c-0.1,0.1-0.2,0.2-0.2,0.4l-5,25.1
		c-0.1,0.3-0.1,0.6,0,0.8c0,0.2,0.1,0.4,0.2,0.6c0.1,0.1,0.3,0.3,0.5,0.3c0.2,0.1,0.4,0.1,0.6,0.1h12.7c0.2,0,0.3-0.1,0.5-0.2
		c0.1-0.2,0.3-0.4,0.4-0.6c0.1-0.2,0.2-0.5,0.3-0.8c0.1-0.3,0.1-0.6,0.2-0.9c0-0.3,0.1-0.5,0.1-0.8c0-0.2,0-0.4,0-0.5
		c0-0.3,0-0.5-0.1-0.6C146,42,145.8,41.9,145.6,41.9z"/>
	<path class="st0" d="M172.1,18.8c-0.4,0-0.9-0.1-1.6-0.1c-0.6,0-1.2,0-1.6,0c-0.4,0-0.7,0.1-0.9,0.1c-0.2,0.1-0.4,0.2-0.5,0.3
		c-0.1,0.1-0.2,0.3-0.3,0.5l-10.8,21.4h0L154,19.8c0-0.2-0.1-0.4-0.1-0.6c-0.1-0.1-0.2-0.3-0.4-0.3c-0.2-0.1-0.5-0.1-0.9-0.2
		c-0.4,0-0.9,0-1.6,0s-1.2,0-1.6,0.1c-0.4,0-0.7,0.1-0.9,0.2c-0.2,0.1-0.3,0.3-0.3,0.5c0,0.2,0,0.5,0,0.9l3.4,25
		c0,0.3,0.1,0.5,0.2,0.6c0.1,0.2,0.3,0.3,0.5,0.4s0.6,0.1,1.1,0.1c0.5,0,1.2,0,2,0c0.7,0,1.3,0,1.8,0c0.4,0,0.8-0.1,1.1-0.1
		c0.3-0.1,0.5-0.2,0.6-0.3c0.1-0.1,0.3-0.3,0.4-0.6L172.4,21c0.3-0.5,0.5-0.9,0.6-1.2c0.1-0.3,0.1-0.5,0-0.7
		C172.8,19,172.5,18.9,172.1,18.8z"/>
	<path class="st0" d="M198.8,3.5C197.4,1.3,195,0,192,0H37.3c-2.1,0-4.5,0.7-6.5,1.9c-2.1,1.2-3.8,3-4.8,4.9L0.8,54
		c-1.4,2.6-1.4,5.4-0.1,7.6c1.3,2.2,3.8,3.5,6.8,3.5h154.6c2.1,0,4.5-0.7,6.5-1.9c2.1-1.2,3.8-3,4.8-4.9l25.2-47.2
		C200.1,8.5,200.1,5.8,198.8,3.5z M194.6,9l-25.2,47.2c-1.3,2.4-4.5,4.3-7.2,4.3H37C25.7,60.3,16.5,51,16.5,39.6
		c0-3.5,0.9-6.9,2.4-9.8L30.1,9c1.3-2.4,4.5-4.3,7.2-4.3H192C194.7,4.6,195.9,6.6,194.6,9z"/>
</g>
</svg>
