<?xml version="1.0" encoding="utf-8"?>
<!-- Generator: Adobe Illustrator 19.2.0, SVG Export Plug-In . SVG Version: 6.00 Build 0)  -->
<svg version="1.1" id="Layer_1" xmlns="http://www.w3.org/2000/svg" xmlns:xlink="http://www.w3.org/1999/xlink" x="0px" y="0px"
	 viewBox="0 0 1024 512" style="enable-background:new 0 0 1024 512;" xml:space="preserve">
<style type="text/css">
	.st0{fill:#6C36B3;}
</style>
<g>
	<path class="st0" d="M0,243.5c0-42,4.9-77.9,14.7-107.8s23.1-54.3,39.7-73.4s35.9-33,57.8-41.7s45-13,69.2-13
		c21.2,0,40.8,3.3,59,9.9s33.7,17,46.8,31.2c13,14.2,23.3,32.3,30.6,54.4c7.4,22.1,11.1,48.7,11.1,79.7c0,51.8-7.6,94.4-22.7,127.9
		s-34.8,58.9-59,76.3c6.4,11.7,13.1,20.4,20.1,26.1s15.4,8.5,25.2,8.5h27.2c1.1,1.9,2.2,5,3.1,9.4c0.9,4.3,1.4,9.4,1.4,15
		c0,18.1-5.4,32.8-16.2,43.9c-10.8,11.1-26.6,16.7-47.4,16.7c-11.3,0-21.6-2.5-30.6-7.6c-9.1-5.1-17.1-11.9-24.1-20.4
		s-13.2-18.3-18.7-29.5s-10.1-23-13.9-35.4c-4.5,0.8-9.1,1.3-13.6,1.7c-4.5,0.4-9.1,0.6-13.6,0.6c-20.8,0-40.2-3.4-58.1-10.2
		c-18-6.8-33.5-17.2-46.5-31.2S18.2,342.8,10.9,321C3.7,299.2,0,273.4,0,243.5z M83.4,240.1c0,18.9,2.1,34.9,6.2,47.9
		c4.2,13,9.6,23.6,16.4,31.8c6.8,8.1,14.5,14,23,17.6s17.1,5.4,25.8,5.4c12.9,0,24.8-2.6,35.7-7.9c11-5.3,20.4-14.2,28.4-26.7
		c7.9-12.5,14.2-29.1,18.7-49.9s6.8-46.7,6.8-77.7c0-17.4-1.8-32.4-5.4-45.1c-3.6-12.7-8.5-23.1-14.7-31.2s-13.6-14.1-22.1-17.9
		s-17.5-5.7-26.9-5.7c-11,0-21.9,2.8-32.9,8.5c-11,5.7-20.8,14.8-29.5,27.5S97.1,145.8,91.6,166C86.1,186.3,83.4,211,83.4,240.1z"/>
	<path class="st0" d="M473.2,126.7h50.5c4.5,4.5,6.8,11.5,6.8,21c0,3.4-0.5,7.8-1.4,13c-0.9,5.3-2.6,10.3-5.1,15s-6.1,8.8-10.8,12.2
		s-10.9,5.1-18.4,5.1h-27.2l-16.4,191.1c-0.8,6.1-2.6,10.8-5.4,14.2c-2.8,3.4-6.5,6.1-11.1,7.9c-4.5,1.9-9.7,3.1-15.6,3.7
		s-12,0.9-18.4,0.9c-6.1,0-12.5-0.8-19.3-2.3s-11.7-3.8-14.7-6.8L384.9,193h-28.4c-3.4-6.8-5.1-14.7-5.1-23.8
		c0-5.3,0.6-10.5,1.7-15.6s3-9.6,5.7-13.6c2.6-4,6.2-7.2,10.8-9.6c4.5-2.5,10.4-3.7,17.6-3.7h3.4l2.8-30.6
		c3-31.8,12.2-54.8,27.5-69.2s36-21.6,62.1-21.6c12.9,0,23.4,0.9,31.8,2.6c8.3,1.7,14.9,4.2,19.9,7.4c4.9,3.2,8.2,7.1,9.9,11.6
		s2.6,9.5,2.6,14.7c0,9.5-1.2,17.6-3.7,24.4c-2.5,6.8-5.2,12.3-8.2,16.4h-34c-6.8,0-12.7,1.7-17.6,5.1s-7.8,10-8.5,19.9L473.2,126.7
		z"/>
	<path class="st0" d="M764.6,204.4c0,29.5-12.8,52.9-38.3,70.3c-25.5,17.4-63.6,30.4-114.3,39.1c7.2,18.9,21.2,28.4,42,28.4
		c7.9,0,16.1-0.6,24.4-1.7c8.3-1.1,16.3-2.7,24.1-4.8c7.7-2.1,14.9-4.3,21.5-6.8s12.2-5.2,16.7-8.2c2.6,2.7,5.1,6.3,7.4,11.1
		c2.3,4.7,3.4,10.7,3.4,17.9c0,17-6.1,30.1-18.1,39.1c-9.8,7.6-22.1,14-36.9,19.3c-14.7,5.3-33.7,7.9-56.7,7.9
		c-18.1,0-34.2-3.3-48.2-9.9s-25.7-15.8-35.2-27.5s-16.5-25.7-21.3-42c-4.7-16.3-7.1-34.2-7.1-53.9c0-26.1,4.1-49.1,12.2-69.2
		c8.1-20,18.8-36.9,32-50.8c13.2-13.8,28.4-24.2,45.4-31.2s34.6-10.5,52.7-10.5c31.4,0,54.9,7.9,70.6,23.8
		C756.8,160.7,764.6,180.6,764.6,204.4z M663.7,190.2c-4.5,0-9.8,1.6-15.9,4.8c-6.1,3.2-11.8,7.9-17.3,14.2
		c-5.5,6.2-10.4,14-14.7,23.3c-4.4,9.3-7.3,19.8-8.8,31.5c17.4-3.4,31.6-7.2,42.5-11.3c11-4.2,19.7-8.4,26.1-12.8
		c6.4-4.3,10.9-8.7,13.3-13c2.5-4.3,3.7-8.6,3.7-12.8c0-5.7-2.1-11.1-6.2-16.2C682.2,192.8,674.6,190.2,663.7,190.2z"/>
	<path class="st0" d="M847.1,126.7c7.9,0,15.4,0.7,22.4,2s13.1,4,18.4,7.9c5.3,4,9.6,9.6,13,16.7c3.4,7.2,5.1,16.6,5.1,28.4
		c10.2-17,21.9-31.4,35.2-43.1c13.2-11.7,27.2-17.6,42-17.6c27.2,0,40.8,17.4,40.8,52.2c0,28-5.4,47.8-16.2,59.5
		s-24.9,17.6-42.2,17.6c-5.3,0-10.5-0.9-15.6-2.8c-5.1-1.9-9.2-4.2-12.2-6.8c0.8-8.3,0.3-14.8-1.4-19.6c-1.7-4.7-5.4-7.1-11.1-7.1
		c-5.3,0-9.9,4-13.9,11.9s-7.8,18.7-11.6,32.3l-13,144c-3,2.6-8.8,4.6-17.3,6c-8.5,1.3-18.1,2-28.6,2c-4.5,0-9.1-0.4-13.6-1.1
		c-4.5-0.8-8.5-2.5-11.9-5.1s-6-6.5-7.7-11.6s-2.2-11.8-1.4-20.1l13.6-156.5c0.8-6.8,0-11.4-2.3-13.9s-5.3-3.7-9.1-3.7h-18.2
		c-1.9-8.7-2.8-17-2.8-25c0-13.6,5.5-24.8,16.4-33.5C814.9,131.1,829.3,126.7,847.1,126.7z"/>
</g>
</svg>
