<?xml version="1.0" encoding="utf-8"?>
<!-- Generator: Adobe Illustrator 19.2.0, SVG Export Plug-In . SVG Version: 6.00 Build 0)  -->
<svg version="1.1" id="Layer_1" xmlns="http://www.w3.org/2000/svg" xmlns:xlink="http://www.w3.org/1999/xlink" x="0px" y="0px"
	 viewBox="0 0 576 258" style="enable-background:new 0 0 576 258;" xml:space="preserve">
<style type="text/css">
	.st0{fill:#C73355;}
	.st1{fill:#FFFFFF;}
</style>
<g>
	<path d="M9.1,122.6c0-8.5,2.7-15.2,8-20.1c5.3-4.9,13.7-7.4,25-7.4c4.6,0,8.5,0.3,11.8,0.8c3.3,0.5,6,1.1,8.2,1.8
		c2.6,0.8,4.8,1.6,6.5,2.5c0.1,3.1-0.3,6.1-1.1,9.2c-0.9,3.1-2.4,5.6-4.6,7.7c-1.6-0.4-3.4-0.9-5.4-1.3c-1.6-0.3-3.6-0.6-5.8-0.9
		c-2.2-0.3-4.6-0.4-6.9-0.4c-4.4,0-7.5,0.6-9.4,1.9c-1.9,1.3-2.9,3-2.9,5.3c0,1.4,0.6,2.6,1.7,3.5c1.1,0.9,2.7,1.7,4.6,2.4
		c1.9,0.7,4.1,1.3,6.5,2c2.4,0.7,4.8,1.4,7.4,2.3c2.4,0.9,4.8,1.9,7.2,3.2c2.4,1.3,4.5,2.9,6.4,4.8c1.8,2,3.4,4.3,4.5,7.1
		c1.1,2.8,1.7,6.1,1.7,10.1c0,8.8-2.7,15.7-8.2,20.6c-5.4,4.9-14,7.4-25.7,7.4c-4.8,0-9.1-0.3-12.8-1c-3.8-0.7-6.9-1.4-9.4-2.3
		c-3.1-1-5.7-2.1-7.8-3.3c0-7.3,2-13,6-17.2c2.1,0.8,4.3,1.4,6.7,2c2.1,0.5,4.4,1,6.9,1.3c2.6,0.3,5.3,0.5,8.1,0.5
		c4.2,0,7.3-0.6,9.2-1.8c1.9-1.2,2.8-3,2.8-5.4c0-1.4-0.5-2.6-1.5-3.6c-1-1-2.3-1.8-3.8-2.5c-1.6-0.7-3.4-1.4-5.5-2
		c-2.1-0.6-4.3-1.3-6.5-2c-2.6-0.8-5.2-1.7-7.8-2.9c-2.6-1.2-4.9-2.7-6.9-4.6c-2-1.8-3.7-4.2-5-7C9.8,130.3,9.1,126.8,9.1,122.6z"/>
	<path d="M113.7,151.7c0,5.7,1.1,9.4,3.4,11.2c2.2,1.8,5.5,2.7,9.9,2.7c0.9,0,1.7,0,2.4-0.1c0.7-0.1,1.4-0.1,2-0.2
		c0.7-0.1,1.4-0.2,2.1-0.3c0.3,0.8,0.7,1.6,1,2.6c0.2,0.9,0.4,1.9,0.7,3.2c0.2,1.3,0.3,2.6,0.3,4.2c0,1.3-0.1,2.4-0.2,3.4
		c-0.1,1-0.3,1.9-0.5,2.6c-0.2,0.9-0.4,1.6-0.5,2.1c-2.4,0.7-4.8,1.1-7.3,1.4c-2.5,0.3-4.9,0.4-7.4,0.4c-11.1,0-19.1-2.6-23.9-7.7
		c-4.8-5.1-7.2-13.4-7.2-24.8v-37.1H76.7c-0.2-0.8-0.4-1.6-0.7-2.5c-0.3-1.4-0.5-3.5-0.5-6.4c0-3,0.2-5.3,0.5-6.9
		c0.2-0.9,0.4-1.6,0.7-2.3h11.8l0-14.5c3.2-1.7,7-3,11.6-3.7c4.6-0.7,9.1-0.8,13.6-0.4v18.6h17.7c0.1,0.7,0.3,1.4,0.5,2.3
		c0.2,0.8,0.4,1.7,0.5,2.9c0.1,1.1,0.2,2.4,0.2,3.8c0,1.3-0.1,2.5-0.2,3.6c-0.1,1.1-0.3,2.1-0.5,2.9l-0.5,2.5l-17.7,0L113.7,151.7z"
		/>
	<path d="M148.2,101.9c2.5-1.2,5.4-2.3,8.7-3.3c2.8-0.9,6.1-1.7,9.9-2.4c3.8-0.7,7.9-1.1,12.5-1.1c12.3,0,21.1,2.5,26.5,7.4
		c5.3,4.9,8,12.5,8,22.9l0,56.6c-0.7,0.2-1.5,0.4-2.6,0.7c-0.9,0.2-2,0.4-3.3,0.5c-1.3,0.1-2.8,0.2-4.6,0.2c-1.6,0-3.1-0.1-4.4-0.2
		c-1.3-0.1-2.4-0.3-3.3-0.5c-1.1-0.2-2-0.4-2.8-0.7l-2.9-8c-3.7,7.3-11.3,11-22.9,11c-8.2,0-14.4-2.3-18.8-7
		c-4.4-4.7-6.5-11.8-6.5-21.4c0-9.4,2.7-16.1,8.3-20.2c5.5-4.1,13.6-6.1,24.4-6.1c2.5,0,5,0.1,7.4,0.2c2.4,0.1,4.7,0.3,6.9,0.5v-2.6
		c0-3.7-1-6.7-2.9-9c-2-2.3-5.5-3.4-10.5-3.4c-2.5,0-5,0.2-7.4,0.6c-2.4,0.4-4.5,0.8-6.4,1.4c-2.2,0.5-4.2,1.1-6.2,1.8
		c-0.7-0.4-1.3-1-2-1.8c-0.5-0.7-1.1-1.5-1.7-2.5c-0.6-1-1.2-2.1-1.7-3.4c-0.5-1.3-0.9-2.6-1.1-3.8c-0.2-1.2-0.4-2.2-0.5-3.1
		C148.1,103.9,148.1,102.9,148.2,101.9z M188.5,146c-3.3-0.3-6.8-0.5-10.5-0.5c-3.6,0-6.4,0.8-8.3,2.5c-2,1.7-2.9,4.5-2.9,8.6
		c0,4.3,0.8,7.2,2.5,8.9c1.6,1.7,4,2.5,7,2.5c2.3,0,4.2-0.5,5.7-1.5c1.5-1,2.8-2.3,3.8-3.8c1-1.6,1.7-3.4,2.1-5.5
		c0.4-2.1,0.7-4.2,0.7-6.4V146z"/>
	<path d="M259.1,97.7c3.3-1.7,6.6-2.5,9.7-2.5c2.5,0,4.9,0.4,7.2,1.1c2.3,0.7,4.7,1.9,7.2,3.5c-0.3,4.4-1.4,8.1-3.2,11.3
		c-1.8,3.2-4.3,6.2-7.4,9c-2.5-2.2-5.3-3.3-8.5-3.3c-5,0-9.4,2.5-13.2,7.5V182c-1.1,0.2-2.2,0.4-3.4,0.7c-1.1,0.2-2.4,0.4-3.9,0.5
		c-1.5,0.1-3.3,0.2-5.2,0.2c-2.2,0-4-0.1-5.6-0.2c-1.5-0.1-2.8-0.3-3.9-0.5c-1.2-0.2-2.2-0.4-3.1-0.7V98c0.9-0.2,1.9-0.4,3.1-0.7
		c1.1-0.2,2.4-0.4,3.9-0.5c1.5-0.1,3.4-0.2,5.6-0.2c2.1,0,3.8,0.1,5.1,0.2c1.4,0.1,2.5,0.3,3.4,0.5c1,0.2,1.8,0.4,2.5,0.7l0.7,8.7
		C252.7,102.4,255.7,99.4,259.1,97.7z"/>
	<path d="M324.2,151.7c0,5.7,1.1,9.4,3.4,11.2c2.2,1.8,5.5,2.7,9.9,2.7c0.9,0,1.7,0,2.4-0.1c0.7-0.1,1.4-0.1,2-0.2
		c0.7-0.1,1.4-0.2,2.1-0.3c0.3,0.8,0.7,1.6,1,2.6c0.2,0.9,0.4,1.9,0.7,3.2c0.2,1.3,0.3,2.6,0.3,4.2c0,1.3-0.1,2.4-0.2,3.4
		c-0.1,1-0.3,1.9-0.5,2.6c-0.2,0.9-0.4,1.6-0.5,2.1c-2.4,0.7-4.8,1.1-7.3,1.4c-2.5,0.3-4.9,0.4-7.4,0.4c-11.1,0-19.1-2.6-23.9-7.7
		c-4.8-5.1-7.2-13.4-7.2-24.8v-37.1h-11.8c-0.2-0.8-0.4-1.6-0.7-2.5c-0.3-1.4-0.5-3.5-0.5-6.4c0-3,0.2-5.3,0.5-6.9
		c0.2-0.9,0.4-1.6,0.7-2.3h11.8V82.8c3.2-1.7,7-3,11.6-3.7c4.6-0.7,9.1-0.8,13.6-0.4v18.6h17.7c0.1,0.7,0.3,1.4,0.5,2.3
		c0.2,0.8,0.4,1.7,0.5,2.9c0.1,1.1,0.2,2.4,0.2,3.8c0,1.3-0.1,2.5-0.2,3.6c-0.1,1.1-0.3,2.1-0.5,2.9l-0.5,2.5h-17.7V151.7z"/>
	<path d="M382.3,80.8c-1,0.2-2.1,0.4-3.3,0.7c-1.1,0.2-2.4,0.4-4,0.5c-1.6,0.1-3.4,0.2-5.3,0.2c-2.2,0-4-0.1-5.6-0.2
		c-1.5-0.1-2.8-0.3-3.9-0.5c-1.2-0.2-2.2-0.4-3.1-0.7V60.4c0.9-0.2,1.9-0.4,3.1-0.7c1.1-0.2,2.4-0.4,3.9-0.5
		c1.5-0.1,3.4-0.2,5.6-0.2c2,0,3.7,0.1,5.3,0.2c1.6,0.1,2.9,0.3,4,0.5c1.2,0.2,2.3,0.4,3.3,0.7V80.8z M382.3,182
		c-1,0.2-2.1,0.4-3.3,0.7c-1.1,0.2-2.4,0.4-4,0.5c-1.6,0.1-3.4,0.2-5.3,0.2c-2.2,0-4-0.1-5.6-0.2c-1.5-0.1-2.8-0.3-3.9-0.5
		c-1.2-0.2-2.2-0.4-3.1-0.7V98c0.9-0.2,1.9-0.4,3.1-0.7c1.1-0.2,2.4-0.4,3.9-0.5c1.5-0.1,3.4-0.2,5.6-0.2c2,0,3.7,0.1,5.3,0.2
		c1.6,0.1,2.9,0.3,4,0.5c1.2,0.2,2.3,0.4,3.3,0.7V182z"/>
	<path d="M466.9,182c-0.9,0.2-1.9,0.4-3.1,0.7c-1.1,0.2-2.4,0.4-4,0.5c-1.6,0.1-3.4,0.2-5.5,0.2c-2.2,0-4-0.1-5.6-0.2
		c-1.5-0.1-2.8-0.3-3.9-0.5c-1.2-0.2-2.2-0.4-3.1-0.7v-57.2c0-3-0.8-5.4-2.4-7.2c-1.6-1.7-4.3-2.6-8.1-2.6c-4.1,0-7.9,1.5-11.3,4.6
		V182c-1,0.2-2.1,0.4-3.3,0.7c-1.1,0.2-2.4,0.4-3.9,0.5c-1.5,0.1-3.3,0.2-5.4,0.2c-2.2,0-4-0.1-5.6-0.2c-1.5-0.1-2.8-0.3-3.9-0.5
		c-1.2-0.2-2.2-0.4-3.1-0.7V98.1c0.9-0.2,1.9-0.4,3.1-0.7c1.1-0.2,2.4-0.4,3.9-0.5c1.5-0.1,3.4-0.2,5.6-0.2c2.1,0,3.9,0.1,5.4,0.2
		c1.5,0.1,2.8,0.3,3.9,0.5c1.2,0.2,2.3,0.4,3.3,0.7v4.9c5.7-5.2,13-7.8,21.9-7.8c8.4,0,14.7,2.3,18.8,6.8c4.1,4.5,6.2,10.4,6.2,17.7
		V182z"/>
</g>
<g>
	<path d="M225.1,227.3c0-7.5,1.5-13.1,4.6-16.9c3-3.8,7.5-5.7,13.3-5.7c1.8,0,3.4,0.1,4.7,0.3c1.4,0.2,2.6,0.5,3.5,0.7
		c1.1,0.3,2.1,0.6,3,1c0,0.7-0.2,1.3-0.4,1.9c-0.2,0.6-0.6,1.1-1,1.5c-0.8-0.3-1.7-0.5-2.7-0.7c-0.8-0.2-1.8-0.4-3-0.5
		c-1.1-0.1-2.3-0.2-3.6-0.2c-1.9,0-3.8,0.3-5.4,0.9c-1.7,0.6-3.1,1.6-4.3,3c-1.2,1.4-2.2,3.3-2.9,5.7c-0.7,2.4-1,5.4-1,9.1
		c0,3.7,0.3,6.7,1,9c0.7,2.4,1.6,4.3,2.9,5.7c1.2,1.4,2.7,2.4,4.3,3c1.7,0.6,3.5,0.9,5.4,0.9c1.7,0,3.1-0.1,4.4-0.3
		c1.3-0.2,2.2-0.4,2.7-0.5v-15.8h-10c-0.1-0.2-0.1-0.3-0.2-0.5c-0.1-0.3-0.2-0.8-0.2-1.4c0-0.6,0.1-1.1,0.2-1.4
		c0-0.2,0.1-0.3,0.2-0.5h14.3v22.3c-0.9,0.4-1.9,0.8-3.2,1c-1.1,0.2-2.3,0.5-3.8,0.7c-1.5,0.2-3.1,0.3-5,0.3
		c-5.8,0-10.2-1.9-13.2-5.6C226.6,240.5,225.1,234.8,225.1,227.3z"/>
	<path d="M262.7,233.2c0-3,0.3-5.6,0.9-7.7c0.6-2.1,1.4-3.8,2.6-5.1c1.1-1.3,2.5-2.3,4.1-2.9c1.6-0.6,3.5-0.9,5.5-0.9
		c2,0,3.9,0.3,5.5,0.9c1.6,0.6,3,1.6,4.1,2.9c1.1,1.3,2,3,2.6,5.1c0.6,2.1,0.9,4.7,0.9,7.7c0,3-0.3,5.6-0.9,7.7
		c-0.6,2.1-1.4,3.8-2.6,5.1c-1.1,1.3-2.5,2.3-4.1,2.9c-1.6,0.6-3.5,0.9-5.5,0.9c-2,0-3.9-0.3-5.5-0.9c-1.6-0.6-3-1.6-4.1-2.9
		c-1.1-1.3-2-3-2.6-5.1C263,238.8,262.7,236.2,262.7,233.2z M284.2,233.2c0-2.6-0.2-4.7-0.6-6.4c-0.4-1.7-1-3-1.7-4
		c-0.7-1-1.6-1.7-2.7-2.1c-1.1-0.4-2.2-0.6-3.5-0.6c-1.3,0-2.5,0.2-3.5,0.6c-1.1,0.4-2,1.1-2.7,2.1c-0.7,1-1.3,2.3-1.7,4
		c-0.4,1.7-0.6,3.8-0.6,6.4c0,2.6,0.2,4.7,0.6,6.4c0.4,1.7,1,3,1.7,4c0.7,1,1.6,1.7,2.7,2.1c1.1,0.4,2.2,0.6,3.5,0.6
		c1.3,0,2.5-0.2,3.5-0.6c1.1-0.4,1.9-1.1,2.7-2.1c0.7-1,1.3-2.3,1.7-4C284,237.9,284.2,235.8,284.2,233.2z"/>
	<path d="M310.6,227.3c0-7.5,1.5-13.1,4.6-16.9c3-3.8,7.5-5.7,13.3-5.7c1.8,0,3.4,0.1,4.8,0.3c1.4,0.2,2.6,0.5,3.5,0.7
		c1.1,0.3,2.1,0.6,3,1c0,0.7-0.2,1.3-0.4,1.9c-0.2,0.6-0.6,1.1-1,1.5c-0.8-0.3-1.7-0.5-2.7-0.7c-0.9-0.2-1.8-0.4-3-0.5
		c-1.1-0.1-2.3-0.2-3.6-0.2c-2,0-3.8,0.3-5.4,0.9c-1.7,0.6-3.1,1.6-4.3,3c-1.2,1.4-2.2,3.3-2.9,5.7c-0.7,2.4-1,5.4-1,9.1
		c0,3.7,0.3,6.7,1,9c0.7,2.4,1.6,4.3,2.9,5.7c1.2,1.4,2.7,2.4,4.3,3c1.7,0.6,3.5,0.9,5.4,0.9c1.7,0,3.1-0.1,4.4-0.3
		c1.3-0.2,2.2-0.4,2.7-0.5v-15.8h-10c-0.1-0.2-0.1-0.3-0.2-0.5c-0.1-0.3-0.2-0.8-0.2-1.4c0-0.6,0.1-1.1,0.2-1.4
		c0-0.2,0.1-0.3,0.2-0.5h14.3v22.3c-0.9,0.4-2,0.8-3.2,1c-1.1,0.2-2.3,0.5-3.8,0.7c-1.5,0.2-3.1,0.3-5,0.3c-5.8,0-10.2-1.9-13.2-5.6
		C312.1,240.5,310.6,234.8,310.6,227.3z"/>
	<path d="M354.2,248.9c-0.2,0.1-0.3,0.1-0.5,0.2c-0.2,0-0.4,0.1-0.7,0.1c-0.3,0-0.6,0-0.9,0c-0.4,0-0.7,0-1,0c-0.3,0-0.5,0-0.7-0.1
		c-0.2,0-0.4-0.1-0.5-0.2v-45.1c0.1,0,0.3-0.1,0.5-0.1c0.2,0,0.4-0.1,0.7-0.1c0.3,0,0.6-0.1,1-0.1c0.4,0,0.7,0,0.9,0.1
		c0.3,0,0.5,0.1,0.7,0.1c0.2,0,0.4,0.1,0.5,0.1V248.9z"/>
	<path d="M362.9,233.2c0-3,0.3-5.6,0.9-7.7c0.6-2.1,1.4-3.8,2.6-5.1c1.1-1.3,2.5-2.3,4.1-2.9c1.6-0.6,3.4-0.9,5.5-0.9
		c2,0,3.9,0.3,5.5,0.9c1.6,0.6,3,1.6,4.1,2.9c1.1,1.3,2,3,2.6,5.1c0.6,2.1,0.9,4.7,0.9,7.7c0,3-0.3,5.6-0.9,7.7
		c-0.6,2.1-1.4,3.8-2.6,5.2c-1.1,1.3-2.5,2.3-4.1,2.9c-1.6,0.6-3.5,0.9-5.5,0.9c-2,0-3.9-0.3-5.5-0.9c-1.6-0.6-3-1.6-4.1-2.9
		c-1.1-1.3-2-3-2.6-5.2C363.2,238.8,362.9,236.2,362.9,233.2z M384.4,233.2c0-2.6-0.2-4.7-0.6-6.4c-0.4-1.7-1-3-1.7-4
		c-0.7-1-1.6-1.7-2.7-2.1c-1.1-0.4-2.2-0.6-3.5-0.6c-1.3,0-2.5,0.2-3.5,0.6c-1.1,0.4-1.9,1.1-2.7,2.1c-0.7,1-1.3,2.3-1.7,4
		c-0.4,1.7-0.6,3.8-0.6,6.4c0,2.6,0.2,4.7,0.6,6.4c0.4,1.7,1,3,1.7,4c0.7,1,1.6,1.7,2.7,2.1c1.1,0.4,2.2,0.6,3.5,0.6
		c1.3,0,2.5-0.2,3.5-0.6c1.1-0.4,1.9-1.1,2.7-2.1c0.7-1,1.3-2.3,1.7-4C384.2,237.9,384.4,235.8,384.4,233.2z"/>
	<path d="M401.7,221.3c0.9-1.5,2.1-2.7,3.6-3.5c1.5-0.8,3.4-1.2,5.8-1.2c1.8,0,3.4,0.3,4.8,0.9c1.4,0.6,2.7,1.5,3.7,2.8
		c1,1.3,1.8,3,2.3,5.1c0.5,2.1,0.8,4.7,0.8,7.8c0,3.1-0.3,5.7-0.8,7.9c-0.5,2.1-1.3,3.8-2.3,5.1c-1,1.3-2.2,2.2-3.7,2.8
		c-1.4,0.6-3.1,0.9-4.8,0.9c-2.4,0-4.3-0.4-5.8-1.2c-1.5-0.8-2.7-2-3.6-3.5v3.8c-0.2,0.1-0.3,0.1-0.5,0.2c-0.2,0-0.4,0.1-0.7,0.1
		c-0.3,0-0.6,0-0.9,0c-0.4,0-0.7,0-1,0c-0.2,0-0.5,0-0.7-0.1c-0.2,0-0.4-0.1-0.6-0.2v-45.1c0.2,0,0.3-0.1,0.6-0.1
		c0.2,0,0.4-0.1,0.7-0.1c0.2,0,0.6-0.1,1-0.1c0.4,0,0.7,0,0.9,0.1c0.3,0,0.5,0.1,0.7,0.1c0.2,0,0.4,0.1,0.5,0.1V221.3z M418.2,233.2
		c0-2.4-0.2-4.4-0.5-6.1c-0.3-1.6-0.9-3-1.6-4c-0.7-1-1.6-1.7-2.6-2.2c-1.1-0.4-2.4-0.7-3.9-0.7c-1.3,0-2.4,0.3-3.4,0.8
		c-1,0.5-1.8,1.2-2.5,2c-0.7,0.8-1.2,1.8-1.5,2.8c-0.3,1.1-0.5,2.2-0.5,3.3v7.9c0,1.1,0.2,2.2,0.5,3.3c0.3,1.1,0.9,2,1.5,2.9
		c0.7,0.9,1.5,1.5,2.5,2.1c1,0.5,2.1,0.8,3.4,0.8c1.5,0,2.8-0.2,3.9-0.7c1.1-0.4,2-1.2,2.6-2.2c0.7-1,1.2-2.3,1.6-4
		C418,237.6,418.2,235.6,418.2,233.2z"/>
	<path d="M431.4,218.6c0.9-0.4,2-0.7,3-1c0.9-0.2,2-0.5,3.3-0.7c1.3-0.2,2.6-0.3,4.1-0.3c2.2,0,4,0.3,5.4,0.8
		c1.4,0.5,2.5,1.3,3.4,2.3c0.8,1,1.4,2.3,1.7,3.8c0.3,1.5,0.5,3.3,0.5,5.3v20c-0.1,0.1-0.3,0.1-0.4,0.2c-0.2,0-0.3,0.1-0.5,0.1
		c-0.2,0-0.5,0-0.8,0c-0.4,0-0.9,0-1.3-0.1c-0.2,0-0.3-0.1-0.5-0.2l-0.7-4.6c-0.9,1.8-2.2,3.1-3.9,4.1c-1.8,0.9-3.9,1.4-6.3,1.4
		c-2.8,0-5.1-0.8-6.9-2.5c-1.7-1.6-2.6-4.1-2.6-7.3c0-6.3,3.8-9.5,11.5-9.5c1.7,0,3.3,0.1,4.7,0.2c1.4,0.1,2.5,0.2,3.3,0.3v-3.3
		c0-2.6-0.6-4.5-1.7-5.7c-1.1-1.2-3-1.8-5.5-1.8c-1.2,0-2.3,0.1-3.3,0.2c-1,0.2-1.9,0.3-2.7,0.5c-0.9,0.2-1.8,0.4-2.6,0.7
		c-0.1,0-0.2-0.2-0.4-0.4c-0.2-0.2-0.4-0.5-0.6-1c-0.2-0.4-0.3-0.9-0.3-1.2C431.4,218.9,431.4,218.7,431.4,218.6z M448.5,234.2
		c-0.7-0.1-1.7-0.2-3.1-0.3c-1.4-0.1-2.8-0.2-4.3-0.2c-2.6,0-4.5,0.5-5.7,1.5c-1.2,1-1.9,2.6-1.9,4.9c0,2.2,0.6,3.8,1.7,4.8
		c1.1,1,2.6,1.5,4.6,1.5c1.3,0,2.5-0.2,3.6-0.7c1.1-0.5,2-1.2,2.7-2c0.7-0.9,1.3-1.9,1.7-3c0.4-1.2,0.6-2.5,0.6-3.8V234.2z"/>
	<path d="M467.1,248.9c-0.2,0.1-0.3,0.1-0.5,0.2c-0.2,0-0.4,0.1-0.7,0.1c-0.3,0-0.6,0-0.9,0c-0.4,0-0.7,0-1,0c-0.3,0-0.5,0-0.7-0.1
		c-0.2,0-0.4-0.1-0.5-0.2v-45.1c0.1,0,0.3-0.1,0.5-0.1c0.2,0,0.4-0.1,0.7-0.1c0.3,0,0.6-0.1,1-0.1c0.4,0,0.7,0,0.9,0.1
		c0.3,0,0.5,0.1,0.7,0.1c0.2,0,0.4,0.1,0.5,0.1V248.9z"/>
	<path d="M481.7,248.9c-0.2,0.1-0.4,0.1-0.6,0.2c-0.2,0-0.5,0.1-0.8,0.1c-0.3,0-0.7,0-1.1,0c-0.4,0-0.8,0-1.1,0
		c-0.3,0-0.6,0-0.8-0.1c-0.2,0-0.4-0.1-0.6-0.2v-4.4c0.2,0,0.4-0.1,0.6-0.1c0.2,0,0.5-0.1,0.8-0.1c0.3,0,0.7-0.1,1.1-0.1
		c0.4,0,0.8,0,1.1,0.1c0.3,0,0.6,0.1,0.8,0.1c0.2,0,0.4,0.1,0.6,0.1V248.9z"/>
</g>
<g>
	<path class="st0" d="M479.8,30.2l34.7-20c3.9-2.3,10.3-2.3,14.2,0l34.7,20c3.9,2.3,7.1,7.8,7.1,12.3v40c0,4.5-3.2,10.1-7.1,12.3
		l-34.7,20c-3.9,2.3-10.3,2.3-14.2,0l-34.7-20c-3.9-2.3-7.1-7.8-7.1-12.3v-40C472.7,38,475.9,32.5,479.8,30.2z"/>
	<g>
		<path class="st1" d="M499.3,82.1c0,0-1.3,0.5-3.6,0.5c-2.5,0-3.6-0.5-3.6-0.5v-6.6c0,0,1.1-0.5,3.6-0.5c2.3,0,3.6,0.5,3.6,0.5
			V82.1z"/>
		<path class="st1" d="M514,82.1c0,0-1.3,0.5-3.6,0.5c-2.5,0-3.6-0.5-3.6-0.5v-42c0,0,1.1-0.5,3.6-0.5c2.3,0,3.6,0.5,3.6,0.5V82.1z"
			/>
		<path class="st1" d="M531.8,69.6c1,3.3,1.5,6.4,1.5,6.4h0.2c0,0,0.7-3.1,1.8-6.5l5.3-16.5c0,0,1.2-0.5,3.3-0.5
			c2.2,0,3.3,0.5,3.3,0.5l-9.5,29.2c0,0-1.9,0.5-4.5,0.5c-2.7,0-4.5-0.5-4.5-0.5L519.1,53c0,0,1.4-0.5,3.7-0.5
			c2.5,0,3.7,0.5,3.7,0.5L531.8,69.6z"/>
	</g>
</g>
</svg>
